<svg xmlns="http://www.w3.org/2000/svg" width="250" height="250" viewBox="0 0 384.335 384.334"><path fill="#002664" d="M192.01 1.687c-105.274 0-190.622 85.34-190.622 190.63 0 105.275 85.348 190.63 190.622 190.63 105.29 0 190.638-85.355 190.638-190.63 0-105.29-85.348-190.63-190.638-190.63"/><path fill="#fff" d="M185.884 15.347c-.317.168-.438.784-.175 1.171l1.365.384c1.091.312 1.258.385 2.46 3.726l5.13 14.154c.443 1.184.966 3.024 1.32 3.964.199.18.507.292.919.304.514.017.928-.073 1.21-.236.848-1.897 1.83-4.587 3.712-8.69l2.694-5.863c1.254-2.744 2.174-4.644 2.966-5.754.469-.71 1.06-.927 2.03-1.07l.9-.144c.247-.197.238-1.022-.034-1.169-.999.036-2.03.038-3.197 0a104 104 0 0 1-4.228-.235c-.416.16-.437.88-.174 1.164l1.093.278c.822.23 1.09.375 1.082.615-.004.208-.12.582-.38 1.232-.452 1.152-2.048 4.953-2.976 7.088l-1.406 3.19a55 55 0 0 1-1.325 2.744c-.22-.591-.6-1.637-1.041-2.922l-2.783-7.824c-.758-2.09-1.264-3.55-1.256-3.826.01-.308.257-.507.881-.625l1.035-.174c.216-.303.271-.954.002-1.17-2.098 0-3.577-.01-5.156-.06-1.787-.057-2.915-.16-4.668-.253zm26.832 1.423c-.302.163-.417.947-.177 1.193l.929.308c1.525.502 1.694.768 1.223 3.964l-1.836 12.508c-.468 3.195-.705 3.4-2.31 3.447l-.977.028c-.302.164-.42.95-.177 1.193 1.846.201 3.551.417 5.184.657 1.596.235 3.26.51 5.085.848.3-.163.45-.937.208-1.183l-.931-.31c-1.523-.502-1.688-.77-1.22-3.966l1.835-12.508c.465-3.196.708-3.404 2.312-3.445l.975-.033c.305-.162.417-.944.177-1.188a135.527 135.527 0 0 1-10.3-1.513m-46.655.415c-.67.024-1.305.094-1.864.186-4.917.81-7.465 3.945-6.798 7.772.55 3.357 3.563 4.95 6.21 5.766 2.2.683 5.045 1.885 5.494 4.633.28 1.695-.586 3.615-3.096 4.027-2.882.477-5.667-2.27-6.709-4.364-.332-.328-1.104-.164-1.27.315.382 2.306 1.225 4.678 1.991 5.316.779.29 2.856.854 5.974.34 5.12-.846 8.097-4.12 7.41-8.292-.614-3.729-3.617-5.257-5.902-6.028l-2.432-.818c-1.843-.602-3.464-1.796-3.723-3.355-.28-1.698.702-3.358 2.94-3.726 2.442-.402 4.308 1.834 5.166 3.466.363.29 1.202.116 1.305-.32-.376-2.272-1.012-4.044-1.409-4.746-.417 0-.734-.018-1.194-.082a13 13 0 0 0-2.093-.09m61.656 1.857c-.45.092-.647.852-.365 1.14l.929.38c1.448.588 1.57.94.773 4.034l-3.193 12.379c-.796 3.095-1.068 3.307-2.614 3.12l-1.31-.158c-.318.133-.445.913-.198 1.19 2.08.467 3.753.863 5.281 1.256l4.46 1.15c2.73.703 5.915 1.56 7.662 2.078.699-.775 2.208-3.331 2.822-5.017-.13-.46-.864-.793-1.21-.528-2.963 3.352-3.923 3.214-6.947 2.432-2.428-.625-2.963-1.044-3.248-1.722-.295-.642-.152-1.745.25-3.306l3.005-11.646c.794-3.096 1.063-3.309 2.62-3.155l.9.087c.318-.13.512-.898.3-1.164-1.68-.359-3.357-.754-4.95-1.164a138 138 0 0 1-4.966-1.385zm-84.696 3.056q-.132.003-.292.052c-.066.018-.806 1.994-2.281 2.825.38.925.161 2.246.018 4.546l-.624 8.926c-.19 2.637-.347 4.404-.518 5.889-.178 1.452-.76 1.906-1.523 2.239l-.862.365c-.152.33.015 1.034.44 1.124 1.515-.45 2.245-.772 3.366-1.103 1.396-.376 2.583-.725 3.753-1.002.28-.262-.01-1.001-.273-1.173l-1.04.13c-.97.108-1.459.035-1.517-.163-.077-.264-.12-.536-.118-1.254l.154-4.206c.016-.685.102-.745.893-.978l3.923-1.157c1.157-.342 1.438-.355 1.758.123l1.727 2.57c.755 1.105 1.22 1.828 1.292 2.058.054.2-.008.467-.729.825l-1.003.473c-.287.374-.014 1.047.407 1.138 1.498-.515 2.771-.928 4.418-1.416 1.714-.505 3.505-.998 5.107-1.4.238-.288-.062-1.057-.309-1.166l-1.31.172c-1.278.163-1.8-.508-3.077-2.281l-8.3-11.591c-1.518-2.097-2.273-3.2-2.818-4.08-.21-.34-.399-.488-.662-.485zm106.858 3.012c-.458.048-.751.78-.506 1.1l.872.497c1.352.77 1.429 1.133.235 4.098L245.7 42.66c-1.197 2.961-1.49 3.139-3 2.75l-1.273-.327c-.336.089-.567.845-.356 1.155 2 .731 3.607 1.342 5.076 1.934l4.267 1.72c2.613 1.054 5.662 2.32 7.324 3.066.794-.68 2.627-3.017 3.455-4.61-.07-.475-.754-.896-1.136-.678-3.368 2.94-4.304 2.672-7.201 1.504-2.327-.938-2.799-1.425-2.993-2.138-.21-.673.072-1.745.678-3.245l4.497-11.15c1.198-2.964 1.49-3.14 3.013-2.788l.877.21c.334-.091.63-.823.45-1.117a143 143 0 0 1-4.753-1.812 137 137 0 0 1-4.746-2.024m-118.53.165a.7.7 0 0 0-.316.052.84.84 0 0 0-.367.268c.001.785-.454 1.024-2.536 1.928l-11.725 5.087c-2.394 1.04-2.546.956-2.934.488a.78.78 0 0 0-.495.066.83.83 0 0 0-.375.351c.315 1.327 1.005 3.348 1.287 5.811.367.327.992.13 1.291-.224-.056-2.713.06-4.263 2.36-5.262l1.953-.846c.757-.327.827-.17 1.157.585l6.034 13.9c1.273 2.932 1.207 3.297-.146 4.072l-1.348.773c-.17.297.145 1.02.481 1.1a198 198 0 0 1 5.316-2.42c1.415-.618 3.008-1.27 5.083-2.095.139-.286-.178-1.008-.48-1.103l-1.327.39c-1.5.427-1.799.259-3.073-2.675l-6.02-13.9c-.356-.815-.303-.951.452-1.281l1.89-.818c2.362-1.028 3.448.261 4.859 2.043.27.187 1.09-.249 1.126-.598-.843-1.77-1.732-4.418-1.88-5.625a.5.5 0 0 0-.252-.066zm10.72 3.124c.499.606 1.615 2.21 2.497 3.49l1.648 2.416c.515.78.38.927-.375 1.154l-3.1.914c-.829.244-1.022.192-.988-.785l.094-2.715c.046-1.664.18-3.637.222-4.475zm-33.256 7.946a135 135 0 0 1-4.449 2.668c-1.432.821-2.94 1.643-4.586 2.504-.136.318.257 1.005.597 1.047l.929-.328c1.509-.548 1.808-.443 3.412 2.36l6.287 10.972c1.603 2.806 1.546 3.117.308 4.143l-.747.627c-.135.314.254.999.594 1.041 1.58-.982 3.054-1.864 4.484-2.686 1.402-.8 2.881-1.61 4.527-2.47.134-.318-.226-1.019-.57-1.063l-.92.328c-1.507.55-1.808.443-3.414-2.361l-6.287-10.974c-1.601-2.8-1.543-3.115-.306-4.138l.745-.627c.139-.315-.253-1-.596-1.044zm171.973 2.684c-.06-.031-1.997.796-3.617.306-.406.916-1.514 1.668-3.273 3.156l-6.874 5.719c-2.036 1.688-3.419 2.794-4.61 3.694-1.172.874-1.906.772-2.671.453l-.858-.37c-.345.118-.731.728-.507 1.093 1.373.785 2.112 1.087 3.123 1.671 1.237.746 2.309 1.36 3.317 2.017.383.019.718-.7.66-1.013l-.813-.657c-.748-.628-1.033-1.03-.93-1.21.138-.237.303-.459.824-.956l3.146-2.79c.5-.463.604-.443 1.32-.033l3.546 2.029c1.045.6 1.246.794 1.126 1.357l-.666 3.026c-.272 1.308-.477 2.143-.594 2.351-.1.178-.34.321-1.096.047l-1.037-.398c-.464.052-.762.711-.537 1.077a98 98 0 0 1 4.077 2.218c1.55.885 3.142 1.834 4.54 2.714.372-.025.719-.774.625-1.027l-1.014-.828c-1.001-.807-.874-1.647-.478-3.794l2.635-14.01c.466-2.542.743-3.851.996-4.853.138-.517.042-.767-.344-.99zm-4.97 3.846c-.088.777-.474 2.696-.792 4.218l-.605 2.858c-.205.914-.407.917-1.094.523l-2.801-1.605c-.744-.425-.844-.602-.116-1.25l2.027-1.81c1.233-1.12 2.753-2.387 3.381-2.934M94.734 45.149a8 8 0 0 1-1.107.455c-1.358.463-2.585 1.171-3.506 1.83-4.053 2.897-4.955 6.834-2.668 9.97 1.975 2.769 5.38 2.869 8.113 2.437 2.276-.358 5.356-.536 6.975 1.73.998 1.397 1.07 3.504-1.001 4.98-2.377 1.698-6.084.461-7.944-.958-.44-.146-1.062.342-1.001.844 1.358 1.902 3.161 3.654 4.13 3.89.828-.086 2.936-.494 5.51-2.33 4.22-3.016 5.449-7.272 2.99-10.708-2.197-3.077-5.569-3.12-7.955-2.804l-2.545.34c-1.917.271-3.902-.082-4.819-1.37-1-1.396-.852-3.319.992-4.637 2.014-1.438 4.672-.253 6.167.832.451.1 1.128-.43 1.03-.863-1.338-1.872-2.695-3.184-3.36-3.638zm198.793 2.125c-.326.034-.745.548-.732.868l.664.714c.827.89.941 1.511.787 2.137-.143.505-.46.956-1.65 2.425l-5.49 6.789c-1.752 2.162-3.454 4.097-4.329 4.58-.668.387-1.354.144-2.184-.306l-.52-.29c-.387.043-.785.649-.757.938a71 71 0 0 1 3.058 2.34c1.069.865 2.113 1.754 3.514 2.976.291-.032.8-.545.756-.933l-.662-.711c-.607-.67-1.07-1.357-.855-2.11.289-.96 1.803-3.05 3.553-5.212l4.195-5.186c.802-.988 1.17-1.443 1.517-1.603.157.793.13 2.628.146 5.778l-.01 12.634c.003 2.565-.22 4.639-.193 4.663.643.517 1.625.832 2.074.662.662-.927 2.02-2.608 3.426-4.348l5.166-6.38c1.75-2.166 3.478-4.086 4.354-4.568.693-.366 1.378-.168 2.156.286l.547.308c.387-.042.786-.645.756-.93a79 79 0 0 1-3.056-2.345 119 119 0 0 1-3.518-2.979c-.29.036-.796.554-.756.938l.636.69c.636.691 1.073 1.355.86 2.11-.289.958-1.804 3.048-3.556 5.212l-2.98 3.688c-.393.477-.76.934-1.082 1.117-.117-1.112-.136-2.675-.187-5.015l-.103-4.463c-.096-4.8-.19-8.238.518-9.657-.602-.403-1.4-1.002-2.307-1.739a117 117 0 0 1-3.624-3.06.3.3 0 0 0-.132-.017zm-101.676 1.944c-78.993 0-143.03 64.038-143.03 143.03s64.04 143.017 143.03 143.017c78.996 0 143.029-64.026 143.029-143.017 0-78.995-64.037-143.03-143.03-143.03M78.396 59.788a7 7 0 0 0-1.628.173c-1.497.308-3.64 1.684-5.783 3.67-2.396 2.216-4.269 4.139-6.044 6.015-.185.408.402 1.04.77.931l.773-.53c1.202-.83 1.507-.598 3.841 1.92l8.267 8.922c2.146 2.32 2.16 2.638 1.213 3.89l-.563.754c-.085.313.476.92.818.882a127 127 0 0 1 3.607-3.48c1.212-1.122 2.394-2.171 3.778-3.359.034-.315-.527-.921-.818-.883l-.801.504c-1.317.852-1.631.816-3.78-1.506l-2.872-3.096c-.469-.506-.467-.605.417-1.42.628-.585 1.219-.757 2.153-.356 1.817.8 3.54 1.498 5.583 2.087 2.792.785 5.026.262 7.347-1.885.779-.726 1.537-1.52 1.777-2.069-.013-.269-.366-.647-.707-.563-.402.323-1.197.78-2.345.858-2.166.088-4.952-.845-9.743-2.682-.383-.162-.524-.311-.387-.674.618-1.652 1.245-4.008-.832-6.254-1.121-1.21-2.481-1.826-4.043-1.85zm-2.983 3.783c1.18.112 2.379.735 3.43 1.87 1.378 1.485 1.646 2.734 1.615 3.56-.033.923-.353 1.641-1.26 2.479-1.488 1.378-1.634 1.373-2.454.492l-4.552-4.915c-1.122-1.21-1.14-1.331-.106-2.286.982-.911 2.146-1.311 3.327-1.2zm239.536 6.94c-2.679.109-5.332 1.16-7.56 3.137-5.37 4.773-5.426 11.541-.84 16.707 4.91 5.528 11.606 6.292 17.214 1.313 5.217-4.635 5.554-11.507.8-16.854-2.682-3.022-6.17-4.443-9.614-4.303zm3.768 3.245c1.71-.081 3.255.52 4.484 1.904 2.83 3.185.972 8.285-3.426 12.19-4.165 3.698-8.62 5.31-11.612 1.942-3.722-4.19.335-9.769 3.473-12.552 2.416-2.146 4.883-3.379 7.08-3.483zm-258.297.43c-.228.39-1.443 1.926-2.837 3.628l-4.621 5.632a118 118 0 0 1-3.217 3.761c-.059.399.531.923.886.815l.679-.556c1.22-.999 1.508-1.027 3.928.957l9.909 8.127c2.446 2.006 2.475 2.3 1.68 3.646l-.839 1.4c-.04.317.597.843.93.763 1.582-2.039 2.624-3.36 3.67-4.635l2.832-3.455c1.786-2.181 3.908-4.71 5.116-6.075-.415-.96-2.043-3.363-3.337-4.6-.408-.158-1.058.421-.94.873 1.806 3.924 1.145 4.895-.752 7.203-1.59 1.942-2.218 2.274-2.98 2.227-.715-.055-1.65-.646-2.873-1.647l-3.162-2.592c-.796-.655-.802-.703-.212-1.421l1.5-1.833c1.134-1.383 1.61-1.523 3.102-.745l.777.41c.388.009.907-.676.778-1.004a54 54 0 0 1-2.882-2.229 58 58 0 0 1-2.755-2.385c-.345-.072-.89.596-.83.955l.555.678c1.058 1.314.979 1.785-.154 3.165l-1.503 1.833c-.588.718-.663.7-1.404.087l-4.652-3.81c-.986-.81-1.037-.848-.318-1.727l1.744-2.126c1.068-1.3 2.04-1.838 2.957-1.93.658-.04 1.758.24 2.929.71.453-.065.905-.722.697-1.07-1.886-1.324-3.954-2.707-4.401-3.03zm271.773 10.248c-.3.024-.652.25-.777.58l.483 1.335c.382 1.065.421 1.247-1.598 4.164l-8.542 12.39c-.705 1.05-1.893 2.546-2.455 3.378-.032.265.055.58.285.92.288.43.599.715.898.85 2.037-.41 4.79-1.176 9.223-2.025l6.336-1.214c2.96-.573 5.036-.928 6.4-.928.85-.029 1.375.32 2.05 1.025l.639.65c.303.087.972-.4.933-.704a46 46 0 0 1-1.86-2.609 100 100 0 0 1-2.259-3.57c-.374-.241-.973.157-1.051.538l.412 1.05c.283.799.325 1.104.125 1.235-.173.117-.545.238-1.22.4-1.203.307-5.22 1.214-7.496 1.702l-3.41.712a58 58 0 0 1-3.002.514c.35-.523.98-1.439 1.772-2.545l4.75-6.806c1.252-1.83 2.15-3.088 2.378-3.242.258-.17.564-.086 1.02.351l.745.745c.37 0 .933-.335.95-.68a150 150 0 0 1-2.943-4.229c-.993-1.485-1.566-2.466-2.512-3.94a.5.5 0 0 0-.274-.047zM48.415 88.972c-.105-.02-.198-.014-.264.026a44 44 0 0 1-1.588 2.78 102 102 0 0 1-2.307 3.547c-.073.44.544.819.922.73l.782-.814c.61-.594.87-.754 1.074-.63.176.11.445.394.872.943.782.962 3.284 4.243 4.678 6.11l2.066 2.807a55 55 0 0 1 1.723 2.516 122 122 0 0 1-3.056-.551l-8.175-1.48c-2.188-.38-3.707-.668-3.94-.813-.263-.164-.311-.478-.103-1.077l.365-.985c-.156-.338-.694-.71-1.013-.584-1.041 1.823-1.789 3.1-2.618 4.444-.938 1.524-1.592 2.454-2.543 3.928-.016.352.46.763.926.728l1.013-.99c.81-.792.96-.899 4.456-.282l14.837 2.6c1.247.202 3.104.66 4.093.824.253-.082.505-.293.72-.643.27-.44.4-.845.4-1.17-1.226-1.685-3.07-3.87-5.692-7.545l-3.747-5.259c-1.758-2.456-2.95-4.196-3.518-5.437-.379-.76-.279-1.382.082-2.291l.323-.851c-.037-.235-.453-.522-.768-.582zM346.9 110.628c-.838.547-2.177.576-4.463.864l-8.888 1.054c-2.625.307-4.389.48-5.88.591-1.455.09-2.014-.39-2.483-1.077l-.518-.782c-.354-.088-1.014.212-1.023.643.724 1.406 1.178 2.06 1.713 3.1.63 1.3 1.193 2.403 1.683 3.503.31.226.984-.196 1.102-.492l-.32-.992c-.287-.936-.308-1.43-.125-1.52.246-.128.507-.224 1.211-.354l4.16-.631c.67-.115.754-.039 1.13.697l1.867 3.634c.551 1.07.616 1.348.207 1.75l-2.206 2.18c-.94.946-1.567 1.537-1.779 1.647-.182.095-.463.08-.945-.558l-.655-.898c-.416-.211-1.029.181-1.036.613a109 109 0 0 1 2.212 4.076c.8 1.564 1.604 3.198 2.29 4.678.371.963.735 1.92 1.061 2.88.439 1.304.846 2.614 1.376 4.396.261.128.966-.04 1.138-.388l-.176-.955c-.157-.89-.183-1.718.4-2.24.76-.657 3.158-1.614 5.795-2.506l6.317-2.14c1.208-.406 1.763-.593 2.14-.541-.291.75-1.292 2.291-2.967 4.96l-6.768 10.677c-1.37 2.168-2.67 3.807-2.658 3.839.262.782.931 1.57 1.4 1.668 1.053-.427 3.1-1.124 5.22-1.84l7.785-2.633c2.639-.891 5.125-1.587 6.124-1.526.785.06 1.254.59 1.671 1.392l.295.556c.35.172 1.01-.125 1.14-.389a72 72 0 0 1-1.329-3.605 115 115 0 0 1-1.38-4.4c-.264-.134-.967.033-1.139.38l.165.926c.17.922.183 1.716-.403 2.241-.757.654-3.154 1.611-5.797 2.505l-4.496 1.52c-.585.2-1.133.382-1.508.363.5-1 1.319-2.33 2.526-4.336l2.3-3.827c2.493-4.11 4.252-7.064 5.608-7.887-.299-.655-.65-1.591-1.022-2.698a113 113 0 0 1-1.426-4.529c-.209-.293-1.001-.061-1.183.255l.18.956c.22 1.193-.013 1.785-.484 2.232-.387.349-.894.559-2.688 1.164l-8.274 2.797c-2.637.89-5.114 1.62-6.112 1.558-.772-.028-1.217-.602-1.678-1.424l-.198-.358-.243-.742c-.4-1.226.162-1.86 1.666-3.445l9.843-10.32c1.774-1.878 2.717-2.828 3.478-3.529.394-.357.453-.62.25-1.016-.033-.062-2.112-.424-3.202-1.717M34.637 112.35a.5.5 0 0 0-.29.032 137 137 0 0 1-2.113 4.744 150 150 0 0 1-2.32 4.682c.072.337.786.673 1.087.512l.57-.8c.922-1.312 1.227-1.398 4.15-.02l11.445 5.386c2.923 1.376 3.056 1.664 2.63 3.212l-.255.943c.069.337.784.673 1.09.513.725-1.71 1.426-3.279 2.13-4.772a132 132 0 0 1 2.29-4.62c-.07-.337-.773-.706-1.075-.545l-.565.799c-.923 1.314-1.228 1.399-4.152.021l-11.444-5.38c-2.927-1.375-3.056-1.66-2.632-3.209l.254-.942c-.052-.254-.468-.506-.801-.55zm309.211.508c-.502.607-1.871 2.006-2.964 3.109l-2.067 2.069c-.67.653-.838.547-1.202-.154l-1.475-2.877c-.394-.765-.383-.965.585-1.112l2.683-.415c1.643-.263 3.607-.503 4.44-.62M28.303 125.254a.6.6 0 0 0-.264.047 79 79 0 0 1-1.1 3.683c-.44 1.341-.893 2.602-1.534 4.348.131.26.797.553 1.142.379l.42-.841c.421-.838.886-1.483 1.668-1.55 1-.074 3.49.602 6.136 1.47l4.506 1.475c.587.193 1.143.374 1.425.612-.995.505-2.448 1.077-4.618 1.959l-4.138 1.68c-4.456 1.793-7.635 3.105-9.211 2.948-.16.704-.436 1.663-.801 2.776-.44 1.34-1.008 2.962-1.577 4.474-.01.36.763.651 1.1.507l.432-.872c.536-1.09 1.076-1.42 1.72-1.496.521-.047 1.053.092 2.849.683l8.297 2.72c2.644.868 5.062 1.77 5.825 2.417.602.486.614 1.215.49 2.15l-.085.586c.177.348.885.506 1.143.375.343-1.26.706-2.483 1.103-3.688.428-1.312.891-2.607 1.534-4.35-.132-.258-.798-.544-1.143-.37l-.433.872c-.41.806-.882 1.482-1.667 1.553-.999.068-3.49-.605-6.136-1.473l-6.334-2.078c-1.211-.393-1.765-.58-2.038-.849.684-.428 2.407-1.057 5.347-2.189l11.817-4.48c2.398-.915 4.416-1.444 4.428-1.477.257-.783.197-1.818-.12-2.175-1.097-.289-3.155-.964-5.279-1.659L35.4 130.86c-2.647-.866-5.049-1.799-5.813-2.449-.589-.517-.647-1.223-.5-2.116l.095-.62c-.131-.26-.563-.416-.88-.421zm-8.386 27.506c-.231-.026-.462.008-.58.092a71 71 0 0 1-.486 3.82 121 121 0 0 1-.805 4.536c.171.237.84.408 1.154.177l.311-.888c.311-.89.633-1.608 1.393-1.803.94-.238 3.545.025 6.294.45l4.11.636c4.653.72 8.251 2.633 7.58 6.982-.8 5.164-5.251 4.925-9.223 4.31l-7.845-1.213c-3.16-.49-3.4-.734-3.433-2.305l-.012-.834c-.161-.302-.911-.42-1.157-.18a116 116 0 0 1-.664 4.978 121 121 0 0 1-.867 4.94c.146.404.897.486 1.145.246l.3-.822c.54-1.483.777-1.655 3.937-1.167l8.495 1.317c3.698.573 6.327.213 8.06-1.326 1.78-1.603 2.546-3.852 2.946-6.436.426-2.747-.044-5.358-1.409-7.097-1.784-2.191-4.657-2.95-7.851-3.443l-3.801-.589c-2.752-.421-5.313-.958-6.141-1.473-.666-.416-.767-1.09-.834-2.005l-.043-.632c-.115-.156-.344-.244-.575-.27zm322.385.832c-.339-.035-.769.094-.874.399.277 1.557.518 2.317.721 3.468.218 1.427.434 2.647.575 3.841.232.31.996.107 1.195-.141l-.007-1.044c.002-.978.127-1.45.33-1.49.266-.044.545-.061 1.258.022l4.159.624c.677.09.732.183.877.997l.709 4.03c.213 1.182.194 1.464-.32 1.731l-2.748 1.428c-1.183.629-1.948 1.007-2.185 1.051-.201.036-.466-.06-.74-.813l-.358-1.053c-.338-.325-1.037-.132-1.176.278.343 1.544.614 2.86.915 4.55.31 1.76.597 3.596.82 5.232.256.268 1.055.055 1.19-.177l-.024-1.324c-.022-1.287.705-1.731 2.611-2.8l12.454-6.951c2.252-1.27 3.431-1.9 4.364-2.342.484-.227.62-.461.542-.9-.015-.071-1.895-1.027-2.555-2.586-.966.276-2.25-.09-4.517-.49l-8.808-1.619c-2.6-.482-4.337-.835-5.795-1.17-1.42-.342-1.81-.974-2.054-1.77l-.267-.891a.7.7 0 0 0-.292-.09zm10.465 6.106q.208-.014.568.04l2.691.396c1.647.232 3.595.584 4.42.718-.655.43-2.376 1.363-3.746 2.098l-2.585 1.362c-.833.426-.964.276-1.103-.502l-.563-3.181c-.114-.635-.103-.899.318-.931M25.46 186.928c-3.014 0-5.443 2.43-5.443 5.415a5.44 5.44 0 0 0 5.443 5.456c2.994 0 5.427-2.433 5.427-5.456 0-2.986-2.432-5.415-5.427-5.415m333.377.146c-3 0-5.425 2.44-5.425 5.453a5.432 5.432 0 0 0 10.863 0 5.437 5.437 0 0 0-5.438-5.453M39.189 212.616c-.332-.05-.802.081-.922.31l-.01.981c-.01 1.602-.213 1.845-3.402 2.378l-12.477 2.078c-3.188.531-3.458.369-3.99-1.148l-.325-.917c-.25-.238-1.03-.11-1.188.196.371 1.82.688 3.51.96 5.14.267 1.593.51 3.263.748 5.104.248.234 1.036.14 1.193-.17l.01-.978c.011-1.598.217-1.845 3.404-2.375l12.475-2.079c3.186-.533 3.46-.37 3.992 1.146l.328.92c.248.24 1.028.109 1.185-.2a131 131 0 0 1-1.71-10.271.5.5 0 0 0-.27-.113zm305.434.926c-.016.453-.353 2.38-.766 4.54l-1.369 7.16c-.311 1.62-.661 3.265-1.034 4.84.136.378.907.56 1.169.294l.33-.81c.596-1.46.833-1.627 3.907-1.035l12.593 2.413c3.105.595 3.268.836 3.214 2.396l-.068 1.636c.116.302.924.454 1.178.226.42-2.547.703-4.21 1.016-5.827l.84-4.388c.53-2.769 1.184-6 1.594-7.776-.82-.65-3.397-1.98-5.13-2.453-.43.058-.726.874-.405 1.216 3.456 2.587 3.337 3.753 2.775 6.69-.471 2.464-.868 3.052-1.555 3.376-.654.295-1.758.222-3.31-.073l-4.018-.768c-1.013-.2-1.039-.236-.865-1.148l.447-2.328c.336-1.756.684-2.11 2.364-2.14l.879-.006c.351-.179.479-1.023.205-1.252a67 67 0 0 1-7.159-1.376c-.333.116-.495.958-.27 1.244l.812.333c1.554.647 1.716 1.097 1.379 2.85l-.446 2.331c-.173.913-.25.933-1.194.752l-5.908-1.133c-1.249-.24-1.316-.253-1.105-1.367l.52-2.698c.32-1.657.918-2.59 1.683-3.108.558-.35 1.654-.628 2.908-.773.366-.28.45-1.066.106-1.273-2.292-.266-4.768-.497-5.316-.565zM41.131 225.758c-.317-.054-.803.12-.947.353l.15.964c.187 1.2-.066 1.777-.544 2.21-.4.34-.91.534-2.719 1.086l-8.344 2.56c-2.66.813-5.15 1.472-6.148 1.383-.772-.051-1.204-.64-1.64-1.475l-.269-.53c-.343-.184-1.014.093-1.15.353a75 75 0 0 1 1.228 3.65c.401 1.317.771 2.635 1.25 4.432.257.135.965-.012 1.149-.356l-.15-.96c-.131-.892-.135-1.717.466-2.225.774-.632 3.197-1.52 5.86-2.338l6.372-1.949c1.215-.374 1.774-.546 2.154-.478-.312.742-1.362 2.247-3.11 4.866l-7.068 10.462c-1.435 2.13-2.776 3.728-2.768 3.759.244.79.89 1.598 1.352 1.706 1.065-.396 3.135-1.029 5.27-1.682l7.848-2.406c2.66-.816 5.165-1.44 6.162-1.35.78.084 1.233.628 1.626 1.444l.28.559c.344.182 1.013-.094 1.15-.354a71 71 0 0 1-1.225-3.643 118 118 0 0 1-1.248-4.432c-.26-.14-.972.002-1.153.348l.142.929c.14.927.13 1.716-.467 2.224-.778.633-3.198 1.52-5.86 2.338l-4.532 1.385c-.592.182-1.15.353-1.52.323.524-.989 1.382-2.291 2.649-4.26l2.406-3.754c2.608-4.034 4.449-6.932 5.827-7.715-.278-.665-.603-1.613-.945-2.73a118 118 0 0 1-1.291-4.563c-.05-.074-.137-.116-.243-.134zm320.866 12.957a.5.5 0 0 0-.26.043l-.62 1.166c-.612 1.134-1.458 1.166-3.642 1.174l-14.254.01c-2.586.011-3.926-.01-4.958-.079-.532-.039-.76.098-.904.524-.026.062 1.152 1.81.97 3.496.974.226 1.92 1.174 3.705 2.628l6.9 5.698c2.033 1.686 3.375 2.845 4.486 3.843 1.073.991 1.111 1.733.938 2.543l-.207.911c.182.318.852.585 1.17.295.52-1.495.679-2.275 1.059-3.38.503-1.35.911-2.52 1.371-3.637-.052-.379-.82-.567-1.117-.453l-.5.917c-.475.853-.818 1.206-1.013 1.14-.26-.092-.507-.214-1.088-.631l-3.328-2.573c-.55-.408-.548-.514-.28-1.294l1.338-3.865c.397-1.134.55-1.372 1.125-1.355l3.098.09c1.335.024 2.194.07 2.423.15.193.065.373.275.247 1.066l-.198 1.096c.134.446.835.618 1.16.327.45-1.52.854-2.797 1.418-4.418a121 121 0 0 1 1.826-4.97c-.07-.265-.538-.446-.864-.462zm-18.083 6.973c.781.002 1.66.016 2.436.03l2.922.064c.933.035.974.23.714.978l-1.058 3.05c-.282.81-.434.94-1.209.346l-2.153-1.655c-1.324-1.002-2.851-2.26-3.511-2.778.393-.03 1.078-.038 1.859-.035zm-10.715 8.688a.5.5 0 0 0-.287.033 139 139 0 0 1-2.164 4.72 146 146 0 0 1-2.365 4.658c.066.336.78.681 1.081.521l.573-.792c.936-1.306 1.242-1.384 4.152.02l11.393 5.497c2.91 1.401 3.038 1.692 2.597 3.235l-.262.943c.066.336.775.678 1.08.518a147 147 0 0 1 2.177-4.746 155 155 0 0 1 2.333-4.592c-.068-.343-.76-.717-1.068-.561l-.572.794c-.935 1.304-1.241 1.386-4.148-.019l-11.393-5.497c-2.908-1.404-3.038-1.694-2.597-3.236l.264-.942c-.048-.252-.461-.509-.794-.554m-281.8 7.406c-1.084-.04-2.184.233-3.244.823-2.987 1.626-3.499 4.995-3.403 7.762.08 2.303-.12 5.385-2.564 6.713-1.51.826-3.606.633-4.82-1.602-1.398-2.562.278-6.095 1.91-7.767.203-.421-.208-1.097-.714-1.096-2.055 1.117-4.015 2.69-4.364 3.627-.016.831.137 2.978 1.647 5.757 2.482 4.552 6.554 6.29 10.265 4.267 3.319-1.807 3.773-5.148 3.749-7.56l-.028-2.568c-.039-1.934.558-3.861 1.946-4.616 1.508-.822 3.396-.44 4.482 1.548 1.184 2.174-.313 4.673-1.572 6.025-.156.434.284 1.174.728 1.127 2.023-1.101 3.49-2.293 4.02-2.894a8.4 8.4 0 0 1-.315-1.16c-.294-1.402-.848-2.706-1.393-3.703-1.637-3.006-3.944-4.595-6.33-4.683zm276.25 4.284a77 77 0 0 1-2.026 3.264c-.77 1.183-1.538 2.287-2.611 3.803.056.29.626.742 1.008.662l.622-.697c.624-.705 1.24-1.203 2.013-1.065.982.193 3.216 1.491 5.545 3.018l3.96 2.6c.521.337 1.007.659 1.221.963-1.094.227-2.646.401-4.972.686l-4.427.55c-4.772.568-8.178 1.003-9.662.442-.339.638-.857 1.493-1.498 2.47a116 116 0 0 1-2.687 3.911c-.103.347.57.829.931.778l.643-.73c.8-.913 1.414-1.089 2.05-1 .517.094.995.364 2.574 1.402l7.302 4.784c2.33 1.526 4.428 3.03 5 3.857.45.621.272 1.331-.09 2.201l-.235.547c.082.38.721.712 1.004.657a84 84 0 0 1 2.027-3.28c.753-1.147 1.534-2.279 2.61-3.794-.06-.284-.626-.736-1.006-.655l-.64.729c-.605.671-1.238 1.199-2.013 1.062-.983-.19-3.217-1.49-5.545-3.016l-5.577-3.657c-1.064-.695-1.551-1.02-1.746-1.348.773-.239 2.604-.394 5.735-.726l12.574-1.249c2.554-.256 4.644-.244 4.661-.27.455-.692.665-1.706.453-2.133-.987-.564-2.797-1.754-4.666-2.976l-6.871-4.501c-2.329-1.526-4.408-3.056-4.98-3.881-.43-.653-.302-1.351.071-2.175l.252-.573c-.08-.384-.719-.722-1.004-.66zm-265.005 8.952c-1.222.595-3.045 1.719-5.384 2.54-.236.432.094.998.504 1.207 2.634-.647 4.167-.88 5.653 1.145l1.26 1.716c.488.665.349.766-.315 1.256l-12.228 8.959c-2.578 1.893-2.951 1.908-4.003.761l-1.054-1.143c-.33-.101-.967.368-.97.712 1.478 1.9 2.56 3.32 3.539 4.651a180 180 0 0 1 3.17 4.499c.307.07.945-.402.97-.714l-.676-1.21c-.748-1.37-.65-1.701 1.93-3.59l12.227-8.96c.722-.53.866-.51 1.35.158l1.221 1.664c1.524 2.08.507 3.421-.921 5.194-.121.3.482 1.009.834.966 1.537-1.214 3.928-2.667 5.071-3.08.043-.117.012-.39-.108-.559a.9.9 0 0 0-.35-.301c-.766.18-1.096-.217-2.438-2.048l-7.557-10.31c-1.548-2.109-1.499-2.271-1.129-2.759a.823.823 0 0 0-.596-.754zM306.27 294.89c-.163.02-.304.112-.454.278-.05.05.337 2.123-.498 3.598.802.597 1.297 1.842 2.354 3.884l4.08 7.972c1.198 2.357 1.973 3.956 2.59 5.313.596 1.335.333 2.024-.147 2.703l-.551.757c.039.363.548.875.956.735 1.068-1.167 1.526-1.818 2.314-2.682 1-1.042 1.836-1.952 2.701-2.795.105-.366-.525-.854-.839-.862l-.825.643c-.78.594-1.23.785-1.38.648-.206-.187-.387-.397-.752-1.013l-2.038-3.685c-.342-.594-.297-.69.261-1.299l2.764-3.016c.814-.885 1.048-1.041 1.57-.799l2.804 1.315c1.217.55 1.988.936 2.168 1.096.15.136.233.402-.198 1.077l-.615.928c-.056.465.526.902.935.761a93 93 0 0 1 3.056-3.497 129 129 0 0 1 3.65-3.834c.057-.36-.599-.864-.864-.83l-1.035.826c-1.01.795-1.8.487-3.808-.368l-13.095-5.655c-2.38-1.019-3.596-1.569-4.517-2.041-.237-.123-.424-.177-.587-.158zm-228.062 3.306c-.646.766-1.923 1.173-4.034 2.102l-8.224 3.547c-2.43 1.039-4.075 1.705-5.471 2.232-1.372.504-2.043.201-2.69-.325l-.715-.599c-.366.01-.912.487-.8.9 1.093 1.144 1.715 1.646 2.522 2.489.973 1.065 1.827 1.962 2.609 2.88.36.128.884-.47.916-.786l-.589-.862c-.54-.816-.698-1.28-.551-1.42.2-.192.422-.355 1.062-.68l3.806-1.788c.615-.3.712-.25 1.282.346l2.825 2.955c.833.866.97 1.112.693 1.62l-1.496 2.711c-.636 1.175-1.064 1.922-1.24 2.086-.149.144-.417.212-1.062-.264l-.882-.679c-.462-.085-.934.466-.824.884a93 93 0 0 1 3.28 3.282 130 130 0 0 1 3.584 3.895c.363.083.909-.543.893-.808l-.754-1.081c-.73-1.065-.372-1.834.62-3.778l6.51-12.692c1.171-2.306 1.803-3.476 2.336-4.366.277-.457.259-.723-.052-1.051-.045-.047-2.141.2-3.556-.738zm230.27 2.67c.74.257 2.528 1.057 3.943 1.697l2.655 1.223c.846.401.808.597.271 1.178l-2.182 2.385c-.579.636-.77.685-1.246-.165l-1.325-2.376c-.815-1.443-1.72-3.205-2.116-3.942zm-232.575.344c-.307.722-1.222 2.455-1.958 3.825l-1.395 2.563c-.456.816-.648.763-1.194.196l-2.234-2.335c-.594-.625-.633-.82.25-1.238l2.457-1.159c1.499-.718 3.313-1.501 4.075-1.852zm224.793.716a44 44 0 0 1-2.382 2.145 93 93 0 0 1-3.297 2.639c-.205.394.26.943.644.978l.997-.526c.765-.375 1.066-.44 1.223-.261.13.16.296.515.534 1.17.435 1.16 1.785 5.059 2.522 7.268l1.081 3.313c.346 1.053.68 2.302.846 2.927-.56-.293-1.543-.816-2.728-1.48l-7.293-3.97c-1.958-1.046-3.31-1.796-3.488-2.01-.2-.235-.146-.545.238-1.05l.655-.82c-.04-.373-.435-.895-.777-.878a138 138 0 0 1-3.882 3.412c-1.366 1.148-2.276 1.826-3.64 2.934-.125.32.193.858.645.968l1.275-.617c1.019-.5 1.194-.556 4.32 1.126l13.269 7.116c1.118.582 2.739 1.6 3.628 2.07.268 0 .573-.124.884-.39.396-.331.647-.675.745-.984-.636-1.983-1.699-4.633-3.035-8.945l-1.914-6.165c-.898-2.883-1.483-4.909-1.633-6.263-.122-.843.17-1.402.797-2.152l.572-.704c.051-.313-.509-.922-.806-.85zm-212.185 3.797c-1.027.893-2.494 2.442-4.543 3.843-.12.476.346.936.799 1.035 2.375-1.308 3.799-1.93 5.752-.356l1.661 1.333c.642.515.532.653.017 1.296l-9.507 11.8c-2.001 2.49-2.355 2.605-3.667 1.77l-1.315-.837c-.343-.012-.837.606-.751.938a218 218 0 0 1 4.613 3.58c1.208.97 2.525 2.072 4.22 3.527.316-.011.815-.626.757-.938l-.966-.997c-1.074-1.128-1.062-1.473.94-3.963l9.494-11.808c.559-.695.704-.71 1.346-.196l1.607 1.291c2.007 1.616 1.37 3.176.447 5.253-.039.324.728.851 1.056.719 1.175-1.57 3.106-3.588 4.105-4.282.012-.125-.09-.379-.25-.511a.86.86 0 0 0-.415-.198c-.694.37-1.118.074-2.884-1.35l-9.96-8.01c-2.036-1.636-2.03-1.806-1.796-2.368a.8.8 0 0 0-.29-.41.82.82 0 0 0-.483-.168zm188.683 14.747c-1.398.99-2.82 1.96-4.2 2.86a131 131 0 0 1-4.375 2.729c-.23.402.2 1.065.603 1.046l.905-.426c1.407-.672 1.75-.528 3.495 2.149l6.982 10.703c1.745 2.678 1.724 3.021.542 4.036l-1 .853c-.119.324.372.948.743.952a159 159 0 0 1 4.486-3.047l3.86-2.516c2.358-1.542 5.135-3.314 6.697-4.251-.101-1.042-.968-3.88-1.8-5.465-.425-.214-1.161.103-1.207.54.48 4.445-.267 5.049-2.884 6.763-2.104 1.37-2.77 1.478-3.461 1.232-.675-.218-1.395-1.064-2.274-2.41l-6.568-10.074c-1.744-2.673-1.721-3.016-.558-4.063l.671-.605c.119-.32-.313-.984-.657-1.006zm-170.73.219c-.43.003-.773.674-.636.99l.664.57c1.194 1.03 1.274 1.308-.3 4.095l-4.227 7.477c-1.844 3.255-2.432 5.84-1.604 8.007.87 2.231 2.7 3.738 4.972 5.022 2.423 1.37 5.028 1.856 7.137 1.192 2.676-.894 4.4-3.313 5.99-6.127l1.893-3.348c1.369-2.424 2.774-4.626 3.541-5.215.626-.48 1.297-.335 2.173-.073l.608.18c.374-.103.653-.736.575-1.016a77 77 0 0 1-3.403-1.815 117 117 0 0 1-3.956-2.354c-.281.09-.677.652-.573 1.027l.721.606c.724.609 1.28 1.158 1.195 1.94-.11.96-1.277 3.301-2.644 5.72l-2.048 3.623c-2.317 4.097-5.375 6.787-9.202 4.625-4.546-2.568-2.756-6.652-.777-10.149l3.907-6.906c1.57-2.783 1.886-2.92 3.37-2.397l.782.28c.34-.043.716-.699.577-1.01a138 138 0 0 1-4.42-2.39 134 134 0 0 1-4.315-2.554zm161.718 5.81c-.872.497-1.821.979-3 1.542a85 85 0 0 1-3.525 1.553c-.237.292.16 1.056.483 1.095l.648-.155c.808-.231 1.392-.277 1.482-.09.176.37.243 1.48.167 4.216-.06 1.963-.066 4.441-.247 6.388-.742-.597-2.132-1.69-3.082-2.498l-3.036-2.63c-1.344-1.155-1.719-1.546-1.837-1.795-.017-.031.115-.246.617-.632l.938-.747c.161-.383-.24-1.07-.575-1.058-1.03.57-2.6 1.346-4.496 2.244-1.835.862-3 1.38-4.426 1.977-.33.265-.01 1.024.39 1.138l1.144-.311c1.177-.327 1.693.038 2.913 1.018l7.314 5.903c1.587 1.264 1.856 1.743 2.588 3.296l.735 1.558c1.368 2.888 1.284 3.191-.012 4.07l-.985.654c-.158.305.178 1.025.518 1.091 1.804-.929 3.347-1.698 4.835-2.4 1.49-.706 3.03-1.397 5.079-2.291.13-.285-.206-1.005-.516-1.086l-1.315.433c-1.487.473-1.792.313-3.158-2.575l-1.03-2.175c-.836-1.776-.985-2.652-.867-4.499l.278-4.465c.214-3.408.43-4.883.62-5.69.134-.598.747-1.154 1.263-1.514l.735-.535c.145-.335-.21-1.08-.64-1.03zm-130.7 10.308c-.433.117-.658.84-.414 1.093l.975.45c1.328.593 1.27 1.008.236 4.322l-3.626 11.608c-.955 3.056-1.222 3.221-2.781 3.018l-.97-.115c-.41.046-.58.822-.281 1.13 1.792.493 3.375.95 4.95 1.44 1.576.493 3.17 1.025 4.987 1.669.423-.086.66-.84.348-1.117l-.999-.493c-1.405-.695-1.517-1.018-.563-4.062l4.322-13.844c.408-1.312.59-1.654 1.802-1.275 2.954.921 3.38 3.941 2.62 6.37-.759 2.423-1.918 4.183-4.908 4.187-.29.124-.39.67-.181.916.353.144.65.235 1.044.356 1.738.546 7.392 1.448 9.074-3.93.993-3.18-.467-5.542-2.231-6.924-1.212-.955-2.945-1.857-5.736-2.73a104 104 0 0 0-7.668-2.07zm108.264.25a9 9 0 0 1-1.193.096c-1.432.035-2.816.34-3.895.69-4.734 1.547-6.777 5.032-5.542 8.712 1.054 3.232 4.274 4.347 7.008 4.76 2.279.336 5.268 1.103 6.131 3.745.535 1.635-.033 3.66-2.453 4.448-2.772.906-5.94-1.384-7.288-3.296-.372-.273-1.116.002-1.207.502.724 2.225 1.914 4.43 2.767 4.948.815.168 2.954.41 5.96-.565 4.932-1.608 7.378-5.296 6.072-9.318-1.171-3.59-4.37-4.643-6.747-5.056l-2.528-.446c-1.913-.317-3.697-1.252-4.185-2.755-.533-1.631.183-3.418 2.34-4.12 2.349-.766 4.533 1.162 5.632 2.645.4.23 1.206-.067 1.241-.516-.716-2.19-1.613-3.842-2.113-4.474m-15.675 4.894a65 65 0 0 1-3.775.744c-1.392.235-2.713.422-4.555.66-.17.23-.117.948.198 1.178l.938-.018c.934-.015 1.718.092 2.142.756.529.85 1.089 3.37 1.548 6.112l.787 4.676c.103.613.198 1.187.118 1.545-.911-.647-2.091-1.665-3.876-3.176l-3.405-2.882c-3.66-3.113-6.295-5.315-6.888-6.787-.699.2-1.677.4-2.828.592-1.39.234-3.088.482-4.692.681-.322.148-.221.972.064 1.202l.968-.022c1.214-.03 1.757.296 2.126.823.282.44.408.98.718 2.842l1.445 8.605c.458 2.744.781 5.302.563 6.278-.15.757-.787 1.108-1.673 1.433l-.558.2c-.225.316-.039 1.013.198 1.185a68 68 0 0 1 3.775-.737c1.358-.23 2.719-.42 4.56-.663.169-.238.117-.96-.199-1.182l-.97.018c-.906.013-1.726-.094-2.152-.754-.521-.85-1.089-3.367-1.546-6.115l-1.105-6.572c-.209-1.253-.302-1.83-.19-2.196.696.405 2.05 1.642 4.418 3.718l9.454 8.375c1.921 1.698 3.327 3.239 3.362 3.23.814-.132 1.7-.667 1.869-1.111-.258-1.106-.616-3.242-.983-5.444l-1.36-8.099c-.458-2.743-.75-5.303-.53-6.282.186-.764.78-1.145 1.643-1.426l.593-.207c.224-.312.035-1.013-.202-1.18zm-72.377.617c-.371.144-.538.92-.267 1.174l.818.313c1.476.558 1.644.795 1.129 3.879l-2.12 12.64c-.522 3.118-.762 3.285-2.324 3.266l-1.633-.026c-.3.12-.437.933-.198 1.183 2.552.36 4.218.603 5.841.877l4.407.737c2.78.465 6.028 1.047 7.814 1.414.626-.831 1.899-3.443 2.33-5.184-.069-.429-.892-.7-1.225-.377-2.506 3.516-3.676 3.426-6.624 2.931-2.473-.414-3.07-.793-3.41-1.48-.308-.64-.263-1.753-.002-3.306l.674-4.036c.172-1.019.211-1.042 1.126-.893l2.34.393c1.76.297 2.122.636 2.187 2.319l.028.879c.185.344 1.04.452 1.258.174.117-1.1.286-2.324.502-3.612.217-1.293.453-2.507.702-3.58-.119-.328-.964-.471-1.248-.238l-.31.816c-.612 1.573-1.06 1.742-2.822 1.45l-2.335-.397c-.915-.152-.943-.225-.78-1.173l.996-5.931c.212-1.253.22-1.321 1.341-1.134l2.71.455c1.66.28 2.61.858 3.146 1.607.359.55.662 1.642.836 2.891.29.363 1.078.427 1.278.076.21-2.299.384-4.773.44-5.323-.453-.009-2.389-.297-4.557-.66l-7.187-1.202a125 125 0 0 1-4.861-.921zm20.79 3.476c-.343.098-.387.921-.148 1.195l.959.146c1.202.183 1.678.593 1.946 1.183.202.484.236 1.035.214 2.924l-.08 8.73c-.026 2.78-.148 5.359-.537 6.28-.28.718-.972.955-1.9 1.115l-.584.099c-.277.277-.215.995-.012 1.206a76 76 0 0 1 3.848-.07c1.375.012 2.749.06 4.6.146.211-.208.286-.924.014-1.204l-.961-.149c-.893-.141-1.68-.39-1.982-1.112-.369-.933-.486-3.511-.46-6.294l.064-6.666c.01-1.269.013-1.855.189-2.2.614.524 1.737 1.98 3.704 4.436l7.847 9.897c1.598 2.006 2.717 3.766 2.747 3.77.828.004 1.795-.359 2.036-.768-.06-1.137-.037-3.303-.016-5.535l.075-8.213c.025-2.782.187-5.356.573-6.277.311-.722.97-.994 1.864-1.126l.617-.092c.282-.27.217-.991.014-1.202a72 72 0 0 1-3.85.078 135 135 0 0 1-4.6-.149c-.207.199-.286.92-.014 1.197l.928.146c.926.146 1.68.395 1.982 1.117.37.929.485 3.504.46 6.294l-.045 4.741c-.004.617-.009 1.202-.149 1.542-.782-.797-1.771-2.005-3.266-3.808l-2.856-3.427c-3.056-3.707-5.266-6.339-5.596-7.884-.72.062-1.717.092-2.884.08-1.41-.013-3.127-.06-4.742-.146z"/><path fill="#c4a006" d="m184.75 64.83 3.308 5.938v5.41h-5.936l-5.94-3.305L176.158 88l5.936-3.304h5.898v12.602l-3.315 5.945h15.18l-3.304-5.936V84.732h5.87l5.924 3.292V72.898l-5.886 3.252h-5.9v-5.42l3.268-5.9zm-1.629 2.606-.502.406c1.642 2.05 3.718 5.282 3.198 6.056-.023.035-.062.079-.179.096-.952.153-3.897-1.909-5.493-3.24l-.415.493c.434.361 4.13 3.398 5.826 3.398q.096-.001.179-.015a.86.86 0 0 0 .622-.379c.96-1.435-2.528-5.927-3.236-6.815m18.367.003c-.71.886-4.19 5.38-3.229 6.81.135.21.349.344.62.384.057.01.116.01.18.01 1.699 0 5.392-3.038 5.82-3.396l-.408-.495c-1.603 1.332-4.526 3.394-5.495 3.24-.115-.016-.157-.057-.182-.097-.517-.77 1.559-4.006 3.198-6.054zM184.427 86.21l-5.307 3.726.455.653 5.307-3.723zm15.699.04-.453.65 5.307 3.726.46-.652zm-14.254 2.17-4.668 4.6.559.566 4.665-4.604zm12.81.036-.554.563 4.668 4.605.556-.568zm-7.32 20.81c.89.22 1.591 3.9 1.287 4.82-.367 1.111-2.192 1.673-3.188 2.143-1.141.539-.198 2.762 1.435 4.522.555.597.151 1.307-.582 2.137-1.997 2.254-3.408-2.61-3.455-3.714-.066-1.41.497-1.626-.535-2.552-.927-.828-3.233.21-3.233.21 2.872 1.676 1.332 2.838-.31 3.763-.938.528-.515 1.851-.258 2.913.57 2.359.373 3.44-.952 3.44-1.321 0-.756-2.179-.857-2.889-2.202.849-3.63 3.793-3.63 8.191 0 8.659 6.7 15.673 14.968 15.673 8.264 0 14.968-7.015 14.968-15.673a6.86 6.86 0 0 0-.898-3.188c-.236-.402.396-2.37-1.317-2.385-.172.524-.18 1.883-1.152 1.548-.97-.335-.202-1.794-.111-2.415.172-1.147.74-1.582-.318-3.184-1.05-1.605-2.11-.847-2.19-1.99-.042-.632.724-2.23 1.047-2.409-1.127-.114-2.265.388-2.8 1.428-.538 1.036-.12 2.295-.157 2.611-.12.997-1.618.998-1.855.245-.759-2.457 1.424-4.626 1.424-7.295 0-2.571-4.804-5.873-7.331-5.95zm-65.145 13.865a4.4 4.4 0 0 0-3.113 7.512c.713.708 1.6 1.11 2.526 1.235a4.5 4.5 0 0 0-1.576.996 4.406 4.406 0 0 0 0 6.226 4.4 4.4 0 0 0 6.223 0 4.35 4.35 0 0 0 1.046-1.72l.761.763a5.423 5.423 0 0 1 .033 7.3l-.443.444a4.33 4.33 0 0 0-1.157-2.107 4.403 4.403 0 0 0-6.223 0 4.403 4.403 0 0 0 0 6.223 4.37 4.37 0 0 0 2.168 1.174 4.39 4.39 0 0 0-2.903 1.27 4.4 4.4 0 0 0 0 6.226 4.397 4.397 0 0 0 6.22 0 4.34 4.34 0 0 0 1.233-2.527 4.4 4.4 0 0 0 1.002 1.577 4.403 4.403 0 0 0 6.223 0 4.4 4.4 0 0 0 0-6.224 4.4 4.4 0 0 0-1.687-1.036l3.174-3.175 46.935 46.875-56.903 56.95 6.4 6.397 56.905-56.952 55.173 55.103 6.97-5.856-55.736-55.664 39.673-39.705 6.51 6.43 6.403-6.4-6.492-6.411a8.23 8.23 0 0 1 1.647-9.275c3.213-3.212 8.439-3.212 11.653 0 .44.441.813.937 1.14 1.456-1.129.32-2.204.894-3.094 1.782a7.113 7.113 0 1 0 10.057 10.062c.9-.895 1.473-1.98 1.792-3.123l.035.012c.04-.146.056-.297.092-.445l.045-.21c1.272-5.48-.34-11.273-4.334-15.27-6.375-6.37-16.747-6.37-23.119 0a16.3 16.3 0 0 0-4.074 6.849l-4.767-4.763-6.398 6.398 6.506 6.51-39.675 39.711-46.932-46.872 3.174-3.176c.207.62.542 1.202 1.034 1.694a4.406 4.406 0 0 0 6.226 0 4.397 4.397 0 0 0 0-6.223 4.37 4.37 0 0 0-2.168-1.176 4.4 4.4 0 0 0 2.906-1.273 4.393 4.393 0 0 0 0-6.22 4.4 4.4 0 0 0-6.224 0 4.4 4.4 0 0 0-1.234 2.526 4.4 4.4 0 0 0-1.004-1.577 4.4 4.4 0 0 0-6.221 6.223 4.37 4.37 0 0 0 2.104 1.157l-.6.604c-2.146 1.92-5.431 1.872-7.49-.189-.02-.017-.033-.04-.049-.061l-.007.007-.66-.657a4.4 4.4 0 0 0 2.074-1.155 4.395 4.395 0 0 0 0-6.22 4.393 4.393 0 0 0-6.221 0 4.34 4.34 0 0 0-1.178 2.165 4.36 4.36 0 0 0-1.273-2.906 4.38 4.38 0 0 0-3.108-1.289zm3.756 4.814c0 .025.007.055.007.08l-.047.047q.02-.061.04-.127z"/><path fill="#002664" d="M254.363 192.537c0-6.263-1.444-11.554-3.07-12.25l.044-.023-59.322-27.714-59.188 27.648h-.142s.013.025.03.05l-.03.016.051.027c.407.706 3.219 5.854 3.219 12.11s-2.812 11.4-3.219 12.11l-.051.026.03.014-.03.053.198.025 59.132 27.621s54.724-25.452 55.784-26.059c.625-.358 1.756-.13 3.46-1.162 1.705-1.035 3.104-6.23 3.104-12.492"/><path fill="#c4a006" d="M183.435 154.79c-13.478 10.73-24.755 20.044-24.212 20.746.534.685 12.768-6.448 27.186-15.217zm66.03 28.568c-.17-.046-.343-.001-.514.148l-55.826 25.97v19.82l55.826-25.574c1.424-.7 2.752-4.598 2.752-10.27 0-4.96-1.055-9.77-2.239-10.094zm-113.144.64s1.652 3.006 1.652 9.375c0 5.606-2.335 10.09-2.335 10.09l55.258 25.788v-19.78z"/><path fill="#002664" d="m247.234 186.92-55.221 25.842-55.232-25.798-.413.881 55.437 25.898.208.096 55.224-25.848v-1.074zm0 3.487-55.221 25.843-54.811-25.605-.412.883 55.018 25.697.205.1 55.224-25.846v-1.077zm0 3.537-55.221 25.867-54.896-25.65-.412.881 55.1 25.737.205.099 55.225-25.866v-1.07zm0 3.537-55.221 25.879-55.254-25.81-.412.88 55.458 25.908.208.096 55.224-25.866v-1.079zm-111.395 3.179-.413.883 4.254 1.987c-1.864.98-3.16 3.01-3.16 5.375 0 3.295 2.525 5.978 5.632 5.978 3.11 0 5.642-2.683 5.64-5.978a6.3 6.3 0 0 0-.258-1.706l5.474 2.556c-1.846.987-3.127 3.006-3.127 5.359 0 3.296 2.524 5.98 5.627 5.98 3.111 0 5.643-2.684 5.643-5.98a6.3 6.3 0 0 0-.25-1.67l5.548 2.591c-1.893.97-3.212 3.018-3.212 5.408 0 3.295 2.525 5.978 5.63 5.978 3.112 0 5.641-2.683 5.64-5.978 0-.621-.113-1.21-.278-1.774l5.566 2.601c-1.901.965-3.23 3.02-3.23 5.415 0 3.298 2.526 5.98 5.627 5.98 3.113 0 5.646-2.682 5.646-5.98 0-.628-.116-1.223-.285-1.793l4.25 1.986.206.095 55.224-25.846v-1.074L192 226.908l-5.019-2.353c-.994-1.718-2.763-2.877-4.795-2.877a5.3 5.3 0 0 0-1.112.12l-7.409-3.461c-.99-1.733-2.764-2.903-4.805-2.903q-.587.001-1.14.124l-7.352-3.433c-.977-1.796-2.78-3.019-4.866-3.019-.43 0-.846.063-1.25.16l-7.264-3.393c-.982-1.771-2.775-2.976-4.842-2.976-.417 0-.82.057-1.212.149l-5.101-2.383z"/><path fill="#008770" d="M130.832 89.573s-7.638 2.356-12.888 8.711c-2.52 3.045-4.02 6.446-4.913 9.174.478-4.51-.05-7.847-.05-7.847s-7.467 4.753-11.214 13.073c-1.658 3.68-2.31 7.438-2.519 10.494-.76-3.504-1.715-5.762-1.715-5.762s-6.947 7.354-8.776 17.623c-.421 2.366-.526 4.677-.45 6.839-1.953-4.393-3.95-7.117-3.95-7.117s-5.96 10.193-5.33 22.353c.169 3.206.781 6.217 1.589 8.933-2.91-3.855-5.43-6.08-5.43-6.08s-3.818 11.938-.348 24.387a38 38 0 0 0 1.496 4.327c-4.857-4.633-9.327-7.008-9.327-7.008s-.99 12.495 5.23 23.82c2.347 4.274 5.384 7.767 8.256 10.463l-.188.003c-3.048 12.3-2.886 12.79-2.712 13.273.25.696.563 1.33.846 1.996-4.346-1.182-7.355-1.468-7.355-1.468s4.428 13.459 15.86 22.547c3.87 3.076 8.037 5.242 11.869 6.782-9.578-.377-17.169 2.354-17.169 2.354s8.856 9.41 21.811 12.5c1.794.427 3.568.722 5.305.931-4.999 1.412-8.238 3.113-8.238 3.113s9.923 7.948 22.975 9.173c2.548.243 7.359-.012 7.359-.012l4.3-.754c-10.21 4.083-16.37 12.703-16.37 12.703s10.589 2.281 21.003-1.757c4.438-1.717 8.119-4.301 10.892-6.702-1.58 2.167-3.12 4.777-4.202 7.774-3.29 9.097-1.105 18.229-1.105 18.229s7.514-5.628 10.802-14.733c1.826-5.058 1.96-10.12 1.72-13.62.326-.449.876-.96 1.791-1.202 5.669-1.494 16.978-3.472 25.502-3.23.298.008.623.05.933.07-14.56 3.579-23.55 9.95-23.55 9.95h5.25s13.16-6.506 24.129-9.035c10.97 2.527 24.137 9.037 24.137 9.037h5.252c.003-.003-8.993-6.378-23.563-9.954.315-.022.646-.062.95-.07 8.52-.243 19.83 1.736 25.498 3.23.915.246 1.467.755 1.791 1.204-.238 3.501-.103 8.562 1.723 13.62 3.286 9.105 10.8 14.733 10.8 14.733s2.182-9.135-1.106-18.232c-1.081-2.997-2.622-5.607-4.2-7.774 2.771 2.401 6.453 4.985 10.89 6.702 10.413 4.039 21.005 1.76 21.005 1.76s-6.162-8.616-16.372-12.703l4.303.757s4.808.248 7.359.007c13.054-1.219 22.983-9.17 22.983-9.17s-3.24-1.704-8.235-3.1a47 47 0 0 0 5.304-.934c12.956-3.09 21.813-12.498 21.813-12.498s-7.595-2.73-17.168-2.351c3.833-1.542 8.002-3.707 11.872-6.782 11.427-9.09 15.856-22.545 15.856-22.545s-3.01.281-7.354 1.464c.285-.666.595-1.3.844-1.996.178-.482.338-.97-2.71-13.269l-.191-.002c2.876-2.699 5.911-6.192 8.257-10.468 6.219-11.326 5.229-23.82 5.229-23.82s-4.467 2.379-9.322 7.007a39 39 0 0 0 1.494-4.328c3.47-12.445-.349-24.385-.349-24.385s-2.52 2.224-5.432 6.08c.808-2.714 1.421-5.726 1.589-8.933.63-12.16-5.328-22.353-5.328-22.353s-1.994 2.726-3.95 7.116c.077-2.164-.03-4.469-.452-6.838-1.826-10.268-8.775-17.62-8.775-17.62s-.956 2.26-1.716 5.76c-.209-3.054-.858-6.812-2.516-10.492-3.745-8.32-11.22-13.074-11.22-13.074s-.522 3.34-.047 7.847c-.89-2.726-2.391-6.132-4.91-9.176-5.249-6.355-12.89-8.71-12.89-8.71s.87 7.946 6.122 14.302c.484.586.991 1.136 1.51 1.657-2.3-.695-3.963-.848-3.963-.848s1.963 5.962 7.029 9.981a20 20 0 0 0 3.685 2.303c.125 1.755.926 9.496 5.63 16.144 4.517 6.375 11.154 9.693 13.12 10.575a39.6 39.6 0 0 0 3.325 6.332l-.021.002c-6.09-8.673-15.13-12.824-15.13-12.824s-.229 11.025 5.813 20.657c.421.672.87 1.317 1.326 1.941-1.785-1.396-2.978-2.13-2.978-2.13s-1.578 11.473 3.212 22.733c-1.553-1.461-2.597-2.248-2.597-2.248s-2.91 12.193 1.487 24.347c2.181 6.033 5.744 10.9 8.782 14.292 2.4 13.522 2.059 16.181 1.84 18.283l5.877-.862c-3.253 1.46-6.657 3.379-9.859 5.921-2.027 1.614-3.824 3.367-5.427 5.151 2.397-7.08 2.675-12.747 2.675-12.747s-12.815 4.845-21.109 16.275c-.34.469-.37.118-.683.599.789-3.825.026-5.847.026-5.847s-11.2 4.894-18.715 15.564c-2.205 3.128-3.787 6.42-4.937 9.518 1.41-8.675-1.195-16.285-1.195-16.285s-7.15 6.524-9.619 16.2c-1.11 4.356-1.072 8.581-.702 11.933-.472.592-1.487 1.467-3.325 1.25-5.117-.606-14.824-1.208-28.145.35a81 81 0 0 0-4.187.61 81 81 0 0 0-4.173-.607c-13.322-1.56-23.027-.96-28.148-.356-1.838.22-2.852-.656-3.325-1.25.372-3.35.41-7.577-.702-11.93-2.469-9.675-9.614-16.2-9.614-16.2s-2.606 7.613-1.195 16.287c-1.151-3.097-2.734-6.392-4.937-9.518-7.516-10.667-18.72-15.566-18.72-15.566s-.76 2.022.031 5.847c-.315-.482-.346-.127-.688-.597-8.293-11.429-21.106-16.278-21.106-16.278s.278 5.67 2.677 12.75c-1.606-1.786-3.402-3.54-5.43-5.15-3.2-2.545-6.606-4.463-9.859-5.925l5.88.863c-.219-2.1-.562-4.758 1.84-18.283 3.036-3.388 6.597-8.258 8.78-14.29 4.397-12.153 1.487-24.347 1.487-24.347s-1.045.79-2.597 2.248c4.79-11.26 3.212-22.735 3.212-22.735s-1.191.733-2.976 2.13c.456-.624.899-1.266 1.324-1.941 6.04-9.63 5.813-20.654 5.813-20.654s-9.043 4.15-15.13 12.821l-.024-.005a39.6 39.6 0 0 0 3.325-6.33c1.97-.88 8.607-4.198 13.12-10.575 4.708-6.648 5.505-14.386 5.63-16.144a20.3 20.3 0 0 0 3.688-2.3c5.067-4.02 7.027-9.981 7.027-9.981s-1.66.153-3.961.846q.779-.778 1.51-1.657c5.25-6.353 6.12-14.302 6.12-14.302zm-2.623 3.178s-.634 5.752-4.435 10.352c-1.582 1.917-3.456 3.319-5.113 4.315-.29.16-.587.324-.877.504-.82.445-1.563.792-2.13 1.032 1.07-1.707 3.677-5.484 5.03-7.102 2.034-2.421 4.36-4.69 4.36-4.69s-2.902 1.275-5.047 3.837c-1.35 1.606-4.336 5.65-5.432 7.378.436-1.996 1.683-6.133 4.315-9.32 3.798-4.603 9.329-6.305 9.329-6.305m127.502 0s5.534 1.703 9.333 6.304c2.632 3.185 3.876 7.325 4.308 9.322-1.093-1.727-4.078-5.77-5.427-7.378-2.148-2.562-5.05-3.836-5.05-3.836s2.329 2.267 4.362 4.689c1.356 1.62 3.96 5.393 5.031 7.102a24 24 0 0 1-2.133-1.034c-.29-.178-.583-.342-.874-.504-1.656-.996-3.533-2.399-5.116-4.315-3.801-4.599-4.434-10.35-4.434-10.35m-144.61 11.02s1.006 6.329-1.706 12.355c-1.932 4.293-5.222 7.268-6.961 8.62.646-2.136 2.323-6.922 3.297-9.049 1.46-3.18 3.28-6.285 3.28-6.285s-2.725 2.21-4.263 5.576c-.975 2.107-2.979 7.298-3.643 9.466-.12-2.26-.001-7.046 1.88-11.217 2.706-6.028 8.116-9.466 8.116-9.466zm161.706.003s5.408 3.435 8.113 9.461c1.883 4.172 2.001 8.957 1.88 11.217-.664-2.166-2.664-7.357-3.638-9.466-1.54-3.365-4.265-5.573-4.265-5.573s1.82 3.105 3.278 6.285c.977 2.123 2.654 6.914 3.299 9.05-1.737-1.355-5.032-4.331-6.964-8.622-2.712-6.024-1.703-12.352-1.703-12.352zm-148.181 2.92s-1.422 4.315-5.093 7.224c-2.541 2.022-5.807 2.935-7.385 3.245 1.376-.833 4.596-3.115 5.877-4.145 2.047-1.647 3.087-3.909 3.087-3.909s-1.811 1.795-3.744 3.35c-1.293 1.038-4.295 3.026-5.648 3.842.627-1.43 2.095-4.21 4.71-6.29 3.67-2.911 8.196-3.317 8.196-3.317zm134.656 0s4.526.402 8.196 3.317c2.614 2.078 4.085 4.86 4.71 6.29-1.353-.818-4.355-2.805-5.646-3.839-1.936-1.56-3.747-3.353-3.747-3.353s1.044 2.26 3.09 3.907c1.282 1.032 4.498 3.312 5.874 4.145-1.579-.309-4.845-1.222-7.385-3.245-3.67-2.91-5.092-7.222-5.092-7.222zm11.591 11.626c1.676.53 3.037.772 3.726.87a31 31 0 0 0 2.613 3.784c-2.24-2.078-4.538-3.608-6.339-4.654m-157.833.003c-1.805 1.043-4.103 2.575-6.34 4.653.911-1.13 1.799-2.401 2.61-3.786.69-.1 2.052-.342 3.73-.868m.754 2.045s-.221 6.493-4.095 11.956c-2.677 3.788-6.795 6.354-8.837 7.407 1.556-1.688 5.062-6.114 6.405-8.045 2.148-3.076 2.672-6.593 2.672-6.593s-1.771 3.186-3.798 6.096c-1.362 1.945-4.688 5.872-6.212 7.535.288-2.213 1.191-6.62 3.952-10.52 3.868-5.465 9.913-7.836 9.913-7.836zm156.325 0s6.046 2.367 9.916 7.833c2.76 3.902 3.662 8.309 3.95 10.519-1.525-1.662-4.85-5.587-6.212-7.534-2.027-2.909-3.799-6.096-3.799-6.096s.524 3.52 2.672 6.596c1.343 1.934 4.852 6.353 6.403 8.04-2.042-1.05-6.158-3.616-8.837-7.406-3.873-5.462-4.093-11.952-4.093-11.952zm17.168 2.184s5.035 5.318 6.358 12.753c.918 5.15-.284 10.486-1.051 12.958-.129-2.589-.902-8.9-1.39-11.512-.769-4.156-3.174-7.368-3.174-7.368s1.154 3.95 1.88 7.882c.49 2.624 1.008 8.406 1.129 10.95-1.548-1.983-4.366-6.201-5.31-11.499-1.322-7.435 1.558-14.164 1.558-14.164zm-190.673.003s2.882 6.724 1.56 14.161c-.943 5.298-3.762 9.513-5.311 11.502.123-2.547.643-8.323 1.128-10.95.73-3.933 1.88-7.882 1.88-7.882s-2.403 3.21-3.176 7.368c-.485 2.611-1.259 8.923-1.385 11.509-.77-2.47-1.97-7.806-1.054-12.955 1.325-7.437 6.358-12.753 6.358-12.753zM84.669 140.84s5.056 6.89 5.514 15.692c.322 6.273-1.768 11.81-3.002 14.48-.534-2.93-1.471-9.634-1.612-12.75-.208-4.663.06-9.456.06-9.456s-1.887 4.283-1.664 9.218c.138 3.094.924 10.474 1.463 13.447-1.526-2.605-4.305-8.354-4.619-14.452-.46-8.805 3.86-16.18 3.86-16.18zm214.562.003s4.319 7.37 3.86 16.176c-.316 6.096-3.092 11.845-4.619 14.453.539-2.975 1.323-10.356 1.461-13.448.222-4.935-1.661-9.22-1.661-9.22s.268 4.794.057 9.46c-.14 3.115-1.075 9.82-1.61 12.748-1.234-2.669-3.326-8.205-3.004-14.482.46-8.803 5.516-15.687 5.516-15.687zm-192.736 1.166s.164 7.98-4.209 14.952c-3.03 4.831-7.902 8.257-10.333 9.69 1.79-2.181 5.784-7.845 7.303-10.31 2.428-3.92 2.832-8.273 2.832-8.273s-1.956 4.033-4.249 7.74c-1.534 2.48-5.345 7.523-7.107 9.67.208-2.737 1.013-8.2 4.131-13.176 4.375-6.968 11.631-10.292 11.631-10.292zm170.91 0s7.255 3.325 11.63 10.293c3.118 4.972 3.925 10.44 4.13 13.177-1.76-2.146-5.57-7.192-7.106-9.668-2.291-3.71-4.247-7.741-4.247-7.741s.403 4.352 2.83 8.273c1.517 2.464 5.514 8.127 7.305 10.31-2.43-1.435-7.305-4.863-10.335-9.695-4.373-6.97-4.206-14.95-4.206-14.95zm-174.82 21.488s1.254 8.983-2.756 17.437c-2.76 5.818-7.751 10.312-10.322 12.272l.003-.047c1.754-2.755 5.441-9.567 6.815-12.522 2.214-4.746 2.092-9.715 2.092-9.715s-1.672 4.811-3.763 9.305c-1.054 2.258-3.37 6.325-5.175 9.334a42 42 0 0 0-.803-6.43c.445-2.084 1.119-4.287 2.151-6.464 4.01-8.454 11.759-13.17 11.759-13.17zm178.73 0s7.748 4.717 11.756 13.17c1.032 2.175 1.705 4.38 2.149 6.463a41.7 41.7 0 0 0-.801 6.431c-1.808-3.009-4.122-7.076-5.177-9.334-2.09-4.492-3.761-9.305-3.761-9.305s-.125 4.97 2.09 9.718c1.373 2.95 5.062 9.762 6.817 12.517 0 .014 0 .034.002.05-2.57-1.963-7.564-6.456-10.318-12.275-4.01-8.45-2.757-17.435-2.757-17.435m25.665 2.688s2.772 8.639.26 17.65c-1.736 6.246-5.94 11.558-8.125 13.905 1.243-2.957 3.764-10.422 4.623-13.595 1.374-5.056.405-9.932.405-9.932s-.832 5.027-2.123 9.81c-.868 3.194-3.384 9.926-4.616 12.835-.662-3.05-1.548-9.27.238-15.696 2.509-9.011 9.338-14.977 9.338-14.977zm-230.065.003s6.83 5.962 9.341 14.977c1.785 6.426.899 12.642.236 15.694-1.228-2.91-3.746-9.641-4.614-12.836-1.292-4.78-2.126-9.812-2.126-9.812s-.965 4.88.408 9.932c.859 3.176 3.376 10.641 4.62 13.599-2.182-2.352-6.385-7.661-8.122-13.905-2.509-9.015.257-17.65.257-17.65zm25.626 18.03s2.106 8.824-1.077 17.62c-2.205 6.096-6.796 11.079-9.15 13.255 1.464-2.855 4.538-10.11 5.634-13.213 1.749-4.936 1.153-9.87 1.153-9.87s-1.204 4.95-2.856 9.623c-1.105 3.12-4.13 9.641-5.571 12.449-.427-3.09-.846-9.358 1.42-15.633 3.183-8.796 10.447-14.23 10.447-14.23zm178.814 0s7.261 5.435 10.443 14.231c2.267 6.275 1.846 12.54 1.419 15.633-1.442-2.808-4.462-9.334-5.568-12.449-1.652-4.673-2.856-9.626-2.856-9.626s-.599 4.937 1.15 9.876c1.096 3.1 4.172 10.35 5.636 13.207-2.351-2.175-6.945-7.156-9.147-13.252-3.188-8.796-1.077-17.62-1.077-17.62M70.11 187.33s6.07 3.219 10.613 9.461c.162.242.324.475.485.707.496.722.98 1.477 1.419 2.276 3.21 5.846 3.765 12.106 3.817 15.225-1.86-2.552-5.85-8.527-7.425-11.44-2.353-4.361-4.312-9.066-4.312-9.066s.172 4.968 2.665 9.58c1.506 2.786 5.403 9.066 7.376 11.843h-.236c-2.776-1.93-7.663-5.966-10.618-11.344-4.504-8.202-3.784-17.242-3.784-17.242zm243.674 0s.722 9.043-3.782 17.242c-2.95 5.381-7.844 9.414-10.616 11.346h-.24c1.974-2.779 5.87-9.059 7.376-11.848 2.494-4.607 2.665-9.576 2.665-9.576s-1.959 4.704-4.31 9.065c-1.575 2.913-5.564 8.89-7.425 11.44.054-3.12.607-9.374 3.817-15.222.44-.8.92-1.553 1.416-2.279q.242-.345.486-.704c4.544-6.243 10.613-9.464 10.613-9.464zM76.795 234.3s10.203.926 18.478 7.505c5.9 4.688 9.21 10.972 10.628 14.198-3.053-1.846-9.82-6.33-12.737-8.678-4.354-3.516-8.455-7.567-8.455-7.567s2.356 5.106 6.968 8.813c2.892 2.338 10.15 7.495 13.247 9.376-3.551-.704-10.923-2.763-16.66-7.328-8.27-6.582-11.471-16.318-11.471-16.318zm230.306 0s-3.2 9.734-11.469 16.315c-5.738 4.566-13.108 6.628-16.66 7.329 3.098-1.877 10.351-7.035 13.246-9.374 4.61-3.707 6.968-8.813 6.968-8.813s-4.1 4.05-8.453 7.569c-2.92 2.347-9.687 6.83-12.739 8.679 1.417-3.23 4.728-9.513 10.628-14.2 8.275-6.58 18.478-7.506 18.478-7.506zm-203.583 3.942s9.275 3.504 15.277 11.776c4.164 5.73 5.85 12.948 6.376 16.405-1.68-3.075-6.36-10.305-8.492-13.197-3.39-4.612-8.22-7.1-8.22-7.1s3.73 4.125 6.945 8.485c2.146 2.918 6.196 9.648 7.851 12.675-3.063-1.506-8.989-4.977-13.268-10.872-6.006-8.276-6.469-18.171-6.469-18.171zm176.871.003s-.464 9.895-6.466 18.172c-4.28 5.895-10.208 9.362-13.271 10.868 1.656-3.03 5.705-9.76 7.852-12.676 3.212-4.358 6.946-8.487 6.946-8.487s-4.83 2.491-8.221 7.104c-2.132 2.892-6.811 10.121-8.493 13.198.527-3.458 2.212-10.673 6.374-16.408 6.005-8.271 15.28-11.773 15.28-11.773zm-155.492 10.644s7.95 3.613 13.392 11.332c3.77 5.348 5.238 12.037 5.674 15.24-1.512-2.865-5.74-9.603-7.67-12.306-3.075-4.306-7.503-6.671-7.503-6.671s3.393 3.866 6.306 7.934c1.944 2.724 5.596 8.995 7.09 11.81-2.814-1.425-8.241-4.708-12.118-10.207-5.445-7.729-5.17-17.131-5.17-17.131zm134.125 0s.275 9.403-5.165 17.13c-3.877 5.5-9.312 8.782-12.121 10.211 1.492-2.818 5.145-9.086 7.09-11.81 2.913-4.071 6.304-7.932 6.304-7.932s-4.428 2.358-7.506 6.669c-1.925 2.698-6.157 9.436-7.667 12.302.435-3.204 1.904-9.889 5.672-15.239 5.444-7.718 13.394-11.332 13.394-11.332zm-22.32 8.302s2.276 6.617.495 13.622c-1.278 4.989-4.258 8.81-5.881 10.597.3-2.424 1.198-7.902 1.85-10.368.97-3.705 2.349-7.388 2.349-7.388s-2.523 2.89-3.551 6.808c-.648 2.459-1.825 8.426-2.133 10.88-.552-2.404-1.33-7.581-.09-12.43 1.784-7.006 6.961-11.722 6.961-11.722zm-89.478.004s5.176 4.71 6.957 11.716c1.243 4.852.465 10.026-.085 12.433-.311-2.457-1.49-8.418-2.138-10.88-1.026-3.917-3.55-6.812-3.55-6.812s1.38 3.688 2.351 7.392c.65 2.469 1.55 7.943 1.847 10.366-1.62-1.787-4.603-5.607-5.879-10.596-1.785-7.004.497-13.618.497-13.618zm-47.72 4.049c2.144.017 4.454.237 6.8.796 6.68 1.597 11.847 5.51 14.269 7.633-3.241-.353-10.569-1.444-13.882-2.255-4.96-1.225-9.909-2.983-9.909-2.983s3.916 3.304 9.16 4.592c3.293.812 11.283 2.271 14.57 2.62-3.205.796-10.096 1.935-16.6.387-9.378-2.242-15.785-9.053-15.785-9.053s4.944-1.788 11.376-1.737zm184.919 0c6.432-.051 11.377 1.734 11.377 1.734s-6.409 6.814-15.786 9.056c-6.502 1.548-13.395.41-16.6-.384 3.288-.351 11.277-1.813 14.573-2.623 5.242-1.286 9.157-4.595 9.157-4.595s-4.948 1.76-9.909 2.986c-3.316.813-10.64 1.9-13.88 2.252 2.42-2.123 7.586-6.033 14.266-7.63 2.347-.56 4.657-.78 6.8-.796zm-163.274 13.814a28 28 0 0 1 3.468.108c6.732.634 12.3 3.73 14.955 5.467-3.205.101-10.494.053-13.835-.285-5.002-.507-10.067-1.539-10.067-1.539s4.275 2.682 9.558 3.215c3.324.337 11.304.653 14.555.542-3.014 1.217-9.569 3.278-16.117 2.662-9.447-.89-16.622-6.645-16.622-6.645s6.22-3.295 14.105-3.525zm139.88 0c8.68-.257 15.82 3.525 15.82 3.525s-7.179 5.755-16.624 6.645c-6.55.613-13.107-1.444-16.117-2.66 3.251.107 11.234-.208 14.557-.544 5.284-.533 9.556-3.212 9.556-3.212s-5.063 1.027-10.067 1.534c-3.341.337-10.63.391-13.835.287 2.654-1.734 8.224-4.832 14.955-5.466q.886-.084 1.755-.109zm-22.669 10.974c2.716.036 6.096.43 9.456 1.732 7.537 2.923 12.09 9.3 12.09 9.3s-7.663 1.648-15.203-1.272c-5.22-2.025-9.433-6.088-11.271-8.165 2.438 1.323 8.646 4.122 11.303 5.125 4.231 1.612 8.51 1.19 8.51 1.19s-4.256-1.134-8.257-2.653c-2.678-1.019-8.254-3.756-10.654-5.054a31.5 31.5 0 0 1 4.025-.203zm-92.83.002c1.629-.022 3.02.085 4.024.2-2.4 1.3-7.976 4.037-10.653 5.055-4.003 1.519-8.255 2.653-8.255 2.653s4.274.42 8.504-1.187c2.66-1.007 8.866-3.806 11.307-5.128-1.836 2.077-6.052 6.141-11.271 8.163-7.538 2.92-15.202 1.275-15.202 1.275s4.553-6.378 12.09-9.301c3.36-1.3 6.738-1.693 9.454-1.73zm83.888 3.158c1.722 1.577 4.97 4.984 6.664 9.682 2.378 6.592.798 13.197.798 13.197s-5.434-4.074-7.811-10.663c-1.649-4.565-1.389-9.63-1.075-12.013.521 2.35 2.22 8 3.078 10.307 1.354 3.68 4.06 6.238 4.06 6.238s-1.681-3.428-2.96-6.91c-.856-2.33-2.24-7.532-2.754-9.837zm-74.949.002c-.51 2.306-1.895 7.508-2.752 9.838-1.282 3.482-2.96 6.907-2.96 6.907s2.706-2.555 4.06-6.235c.86-2.306 2.56-7.958 3.08-10.312.314 2.385.573 7.45-1.074 12.016-2.379 6.588-7.814 10.662-7.814 10.662s-1.582-6.603.799-13.197c1.695-4.695 4.943-8.102 6.661-9.678z"/><path fill="#002664" d="M196.85 168.026c-2.944.006-5.93.143-8.772.374l-.526.043v5.083l.62-.047c11.027-.897 24.998-.374 28.58 3.991-2.294 1.903-9.03 3.28-15.096 4.525-9.777 2.002-19.876 4.08-20.075 8.93h-.012v4.096h-.003q.002.029.003.054v.059h.005c.003.088.008.182.016.266.375 3.435 4.836 3.302 11.606 3.099 4.696-.137 10.532-.305 16.853.632.326 3.931 3.59 7.043 7.607 7.043a7.66 7.66 0 0 0 6.12-3.061 46 46 0 0 1 3.326 1.68l.851.471v-5.245l-.292-.167a50 50 0 0 0-2.333-1.2l.002-.15c0-4.231-3.444-7.673-7.674-7.673a7.67 7.67 0 0 0-6.365 3.395c-6.834-1.14-13.095-.96-18.132-.808-4.672.138-7.754.16-9.287-.603 2.937-2.668 10.927-4.31 18.018-5.764 8.792-1.801 16.383-3.353 16.796-6.74.017-.11.017-.226.024-.332h.01v-.148l.002-.083h-.002v-3.972h-.022c0-1.226-.433-2.34-1.355-3.297-3.178-3.312-11.655-4.47-20.49-4.451zm20.808 26.88c1.317 0 2.463.713 3.094 1.806a50 50 0 0 0-4.635-1.444c.47-.227.989-.363 1.54-.363m-3.283 5.047c1.801.413 3.552.927 5.26 1.522a3.54 3.54 0 0 1-1.977.622 3.59 3.59 0 0 1-3.283-2.144"/><path fill="#fff" d="M196.935 169.184c-2.796.001-5.606.12-8.238.323v2.792c2.755-.215 5.608-.332 8.408-.332 8.915 0 17.303 1.209 20.36 4.59q.065-.155.08-.31c.138-1.132-.198-2.1-1.033-2.97-2.923-3.044-11.187-4.098-19.577-4.093zm20.636 9.056c-2.463 2.17-8.686 3.449-15.684 4.887-8.945 1.834-19.082 3.909-19.178 7.89v.007c-.003.107.005.217.017.322q.046.426.243.747c3.101-2.952 11.013-4.583 18.686-6.15 7.304-1.499 15.577-3.197 15.89-5.761.013-.121.021-.244.025-.358zm.082 13.743a6.533 6.533 0 0 0-6.524 6.527 6.53 6.53 0 0 0 6.524 6.525c1.955 0 3.753-.9 4.987-2.385-.578-.248-1.148-.504-1.737-.73-.877.834-2.018 1.329-3.247 1.329a4.744 4.744 0 0 1-4.741-4.739 4.746 4.746 0 0 1 4.74-4.738c2.163 0 4.011 1.44 4.565 3.513.646.261 1.288.531 1.92.82-.214-3.41-3.026-6.122-6.487-6.122zm-34.94 1.508v1.574q-.002.106.013.217c.247 2.283 3.736 2.284 10.432 2.08 4.696-.136 10.53-.306 16.88.616.067-.948.289-1.848.668-2.673-6.574-1.053-12.626-.881-17.515-.735-4.987.15-8.711.254-10.48-1.079zm32.249 2.658a3.6 3.6 0 0 0-.905 2.361c0 .066.02.127.023.193 4.536.994 8.81 2.547 12.725 4.628v-2.634c-3.65-2.002-7.63-3.532-11.843-4.548z"/><path fill="#002664" d="M191.844 53.608c-76.434 0-138.614 62.188-138.614 138.626 0 76.436 62.185 138.625 138.614 138.625 76.436 0 138.625-62.188 138.625-138.625 0-76.434-62.186-138.626-138.625-138.626m0 2.307c75.162 0 136.309 61.151 136.309 136.31 0 75.162-61.151 136.308-136.31 136.308-75.163 0-136.32-61.148-136.32-136.309 0-75.164 61.153-136.309 136.32-136.309M67.093 209.682l9.682 9.88-9.84 9.08 2.477.01c.081 0 7.926.035 16.855.568a5.3 5.3 0 0 0-.308 1.812v17.195h.016c.043.689.349 1.316.9 1.81 1.392 1.246 4.42 1.752 8.969 1.752 6.06 0 14.818-.897 26.013-2.142 12.618-1.402 25.642-2.843 33.115-2.073v10.481h-.062c-.006 1.152.408 2.32 1.266 3.575 3.276 4.783 32.506 4.933 35.829 4.934h.066c5.706 0 33.36-.25 36.15-4.99.684-1.161 1.026-2.24 1.062-3.283h.015v-10.71c7.466-.796 20.536.655 33.215 2.066 11.192 1.246 19.948 2.142 26.009 2.142 4.548 0 7.576-.507 8.966-1.753.605-.537.919-1.223.919-1.984h-.047v-16.554c.027-.152.047-.307.047-.467 0-.651-.109-1.258-.311-1.814a342 342 0 0 1 16.858-.566l2.554-.01-10.24-9.06 10.066-9.9-2.387.008c-10.496.042-44.753.71-44.753 7.8 0 .25.027.485.07.711v13.319c-2.513-.265-5.049-.548-7.528-.827-22.732-2.53-37.837-3.835-40.566.803-.26.441-.373.85-.43 1.242h-.056v12.748c-5.583 1.189-15.712 2.111-29.57 2.111h-.11c-13.297-.003-23.609-.952-29.334-2.189v-12.67h-.056a3.1 3.1 0 0 0-.417-1.242c-2.734-4.64-17.835-3.333-40.564-.804-2.47.279-4.997.559-7.503.823v-13.606c.017-.139.04-.277.04-.422 0-7.089-34.25-7.759-44.748-7.8z"/><path fill="#fff" d="M312.553 211.652c-19.883.231-40.415 2.453-40.415 5.837q0 .216.07.42h.006v.012c.67 2.016 6.02 3.153 10.775 4.164 5.347 1.134 11.226 2.382 13.92 5.257a342 342 0 0 1 15.505-.606l-8-7.079zm-240.803.003 7.819 7.983-7.699 7.098c3.216.052 9.195.201 15.583.605 2.693-2.872 8.572-4.123 13.922-5.257 5.084-1.08 10.849-2.305 10.849-4.595 0-3.388-20.578-5.61-40.474-5.834zm40.437 9.089c-2.241 1.502-6.13 2.332-10.406 3.242-6.504 1.379-13.877 2.947-13.877 7.043 0 .15.028.326.268.54 2.22 1.985 12.686 1.3 24.014.146zm160.028.023v10.95c11.318 1.152 21.769 1.834 23.98-.148a.8.8 0 0 0 .218-.292v-.245h.054c0-4.099-7.378-5.666-13.881-7.046-4.255-.904-8.125-1.731-10.371-3.219zm-120.673 9.572c-7.894-.137-19.571 1.162-29.697 2.29-17.958 1.997-29.619 3.092-33.947 1.028v13.985l.02.003a4 4 0 0 0-.02.405c0 .144.028.323.268.537 2.834 2.535 19.11.724 33.468-.874 12.604-1.403 25.604-2.847 33.33-2.097v-3.853c-.432-2.882 1.9-4.806 3.584-6.186 1.947-1.598 2.472-2.233 1.965-3.094-.861-1.462-4.235-2.062-8.971-2.144zm81.273.002c-4.737.082-8.112.68-8.973 2.142-.515.872-.047 1.458 1.833 3.014 1.604 1.328 3.828 3.171 3.593 6.028h.024v4.093c7.725-.768 20.78.686 33.43 2.095 14.359 1.596 30.634 3.409 33.464.874.226-.206.267-.373.27-.514h-.049v-14.396c-4.364 2.028-16.005.94-33.895-1.046-10.126-1.128-21.804-2.427-29.698-2.29zm-72.097 5.943c-.312.278-.63.545-.938.799-1.633 1.339-2.801 2.411-2.915 3.775h.047v.78c.114.558.383 1.172.865 1.873.328.478 1.344.961 2.94 1.414zm62.902.017v8.716c1.645-.465 2.636-.963 2.922-1.45 1.786-3.027.396-4.502-2.104-6.569-.27-.223-.546-.456-.818-.697m-66.708 9.025v12.965h-.042c.056.677.353 1.424.907 2.238 1.373 2.005 14.55 4.083 34.222 4.089h.108c20.824 0 33.28-2.075 34.435-4.034.529-.895.797-1.72.803-2.451v-12.694c-5.485 3.891-29.953 4.108-35.28 4.108H192c-3.146-.001-29.531-.135-35.087-4.22z"/><path fill="#d21242" d="M214.087 153.03a13 13 0 0 0 2.897-8.197c0-7.213-5.851-13.061-13.062-13.061-5.203 0-9.685 3.048-11.785 7.45-2.102-4.402-6.582-7.45-11.78-7.45-7.215 0-13.065 5.847-13.065 13.06 0 3.107 1.087 5.957 2.897 8.196l21.948 26.41 21.96-26.408z"/><path fill="#c4a006" d="m225.749 129.446 2.157-8.865s-12.893 11.318-27.539 22.714l.004.004c-.01.002-.029 0-.039.002-.232.162.082 1.378.896 2.57.816 1.19 1.82 1.913 2.057 1.752 16.037-9.845 31.575-17.908 31.575-17.908z"/><path fill="#002664" d="M238.173 234.033c-1.315-.026-2.613.33-3.525 1.06-.885.703-1.566 1.779-1.593 3.323-.03 1.567.646 2.63 1.546 3.343.884.685 2.142 1.004 3.38 1.026.988.02 1.896-.244 2.579-.422.183-.285.413-1.041.518-1.975-.071-.152-.375-.199-.48-.101-.358.857-1.087 1.945-2.618 1.915-1.518-.029-2.946-1.412-2.901-3.925.05-2.52 1.578-3.694 2.983-3.665 1.229.02 2.025.67 2.34 1.85.088.12.433.074.485-.078a17 17 0 0 1-.113-1.972c-.382-.038-1.308-.359-2.601-.38m-89.542.148c-1.835.024-2.935 1.025-2.908 2.449.016 1.254 1.022 2.001 1.937 2.445.764.372 1.727.971 1.742 1.994.007.634-.417 1.284-1.355 1.291-1.075.013-1.933-1.14-2.199-1.963-.1-.138-.392-.121-.478.045.008.86.184 1.77.426 2.046.267.147.992.467 2.156.457 1.908-.023 3.178-1.045 3.163-2.604-.017-1.39-1.026-2.113-1.815-2.524l-.841-.434c-.632-.32-1.156-.846-1.164-1.428-.009-.632.446-1.182 1.28-1.192.91-.008 1.462.909 1.687 1.553.113.126.43.106.49-.042-.01-.851-.142-1.53-.248-1.808a3 3 0 0 1-.429-.094 5 5 0 0 0-1.444-.19m-8.16.314c-.025 0-.453.649-1.049.827.059.365-.153.821-.396 1.635l-.942 3.148c-.279.93-.472 1.546-.653 2.067-.186.507-.432.622-.73.679l-.34.056c-.082.11-.08.376.066.44.575-.032.867-.09 1.298-.115.527-.023 1.033-.052 1.476-.056.12-.07.077-.36-.003-.443l-.382-.038c-.357-.044-.462-.112-.469-.186-.006-.104.001-.205.062-.464l.374-1.487c.06-.246.097-.26.401-.28l1.414-.09c.44-.031.543-.006.62.19l.407 1.061c.182.46.287.757.295.844.006.076-.043.167-.328.235l-.398.09c-.134.111-.095.372.05.44a36 36 0 0 1 1.7-.148c.659-.04 1.34-.07 1.945-.082.107-.085.066-.38-.014-.441l-.483-.047c-.474-.044-.603-.332-.917-1.068l-2.024-4.837c-.37-.877-.553-1.337-.676-1.692-.062-.19-.14-.247-.304-.238m106.136.007c-.025-.001-.537.583-1.153.676.012.369-.263.793-.612 1.567l-1.358 2.998c-.408.883-.678 1.473-.93 1.962-.25.475-.509.557-.816.568l-.344.02c-.093.095-.128.359.007.445.582.039.87.02 1.304.054.527.048 1.033.089 1.475.143.13-.051.126-.344.056-.438l-.379-.09c-.346-.087-.44-.173-.436-.25.008-.099.025-.199.123-.444l.572-1.433c.096-.232.133-.243.436-.22l1.414.104c.441.03.539.064.59.274l.26 1.11c.116.477.181.784.177.874-.006.076-.063.16-.355.19l-.41.034c-.145.09-.14.357-.008.443.581.015 1.075.039 1.706.084a48 48 0 0 1 1.942.18c.122-.069.116-.368.047-.439l-.476-.11c-.46-.112-.552-.408-.763-1.188l-1.353-5.071a28 28 0 0 1-.443-1.77c-.039-.195-.11-.261-.273-.273zm-110.503.15a.3.3 0 0 0-.16.05c-.092.276-.278.307-1.11.38l-4.691.417c-.961.083-1.003.035-1.084-.175a.302.302 0 0 0-.353.047c-.046.497-.038 1.285-.227 2.178.091.157.333.16.476.07.299-.952.518-1.479 1.44-1.564l.78-.066c.303-.03.31.037.334.34l.493 5.56c.103 1.175.039 1.293-.52 1.405l-.566.113c-.092.085-.067.375.042.443a83 83 0 0 1 2.14-.229 81 81 0 0 1 2.021-.139c.08-.081.054-.37-.04-.443l-.509-.014c-.576-.027-.66-.119-.763-1.294l-.493-5.56c-.031-.331.006-.372.31-.397l.756-.068c.944-.086 1.176.494 1.458 1.284.075.096.412.039.467-.08-.09-.716-.093-1.747-.005-2.189a.27.27 0 0 0-.196-.068zm115.37.52c-.158.05-.188.366-.067.44l.336.08c.523.129.529.27.408 1.53l-.429 4.458c-.113 1.16-.197 1.238-.773 1.284l-.344.03c-.105.054-.135.353-.042.439.656.041 1.21.081 1.84.143.605.057 1.182.125 1.848.217.096-.067.121-.37.04-.443l-.335-.099c-.555-.151-.623-.247-.511-1.404l.153-1.548c.021-.252.051-.28.492-.234.314.032.508.154.625.507.224.694.453 1.339.792 2.045.468.96 1.157 1.448 2.316 1.556.389.038.794.053 1.004-.017.07-.068.09-.256-.017-.33-.189-.034-.51-.14-.81-.433-.557-.574-.982-1.57-1.65-3.337-.047-.147-.037-.22.092-.273.61-.233 1.408-.637 1.513-1.76.08-.805-.233-1.47-.924-1.97-.451-.335-1.353-.588-2.425-.693a49 49 0 0 0-3.131-.189m-124.4.593c-.68.082-1.308.155-1.9.217-.602.059-1.235.103-1.915.148-.092.094-.065.38.042.448l.358.03c.59.044.676.123.79 1.306l.457 4.628c.115 1.185.049 1.279-.523 1.437l-.344.097c-.096.082-.067.374.042.44a44 44 0 0 1 1.911-.226c.59-.057 1.207-.105 1.89-.146.091-.085.075-.374-.033-.443l-.358-.028c-.587-.043-.671-.12-.787-1.305l-.455-4.628c-.12-1.183-.051-1.278.519-1.435l.344-.1c.094-.083.07-.372-.038-.44zm133.305.15c-.11.072-.143.36-.05.444l.344.101c.572.16.638.255.519 1.437l-.472 4.633c-.119 1.184-.204 1.265-.794 1.308l-.358.028c-.107.061-.138.355-.045.44a48 48 0 0 1 3.801.385c.11-.068.15-.353.059-.44l-.346-.1c-.568-.157-.637-.252-.514-1.437l.467-4.633c.123-1.182.207-1.264.796-1.308l.36-.023c.106-.067.136-.358.043-.443-.679-.052-1.31-.1-1.902-.16-.605-.06-1.233-.14-1.908-.231m-6.12.013c.077-.006.176.001.306.014.98.097 1.58.89 1.466 2.024-.072.742-.348 1.122-.587 1.315-.26.214-.537.302-.99.259-.741-.07-.773-.111-.73-.554l.236-2.455c.045-.453.07-.586.299-.603zm11.711.292a.3.3 0 0 0-.181.045c-.139.484-.28 1.256-.632 2.097.062.172.298.223.458.16.469-.882.784-1.354 1.703-1.263l.778.076c.3.029.298.09.269.393l-.552 5.552c-.115 1.17-.202 1.278-.775 1.286l-.573.005c-.11.065-.14.355-.047.44.886.065 1.544.115 2.15.175.565.057 1.189.133 2.007.238.094-.066.125-.356.047-.44l-.5-.111c-.56-.134-.627-.245-.51-1.416l.55-5.55c.034-.328.073-.363.377-.332l.757.078c.94.091 1.06.7 1.192 1.527.056.106.4.116.474.007.047-.716.233-1.727.403-2.147a.28.28 0 0 0-.182-.106.33.33 0 0 0-.167.02c-.136.257-.327.248-1.16.166l-4.684-.464c-.956-.096-.986-.147-1.03-.367a.3.3 0 0 0-.172-.069zm-147.662.438a10 10 0 0 0-.773.05 49 49 0 0 0-3.11.424c-.14.082-.111.395.024.445l.344.017c.534.022.575.159.7 1.416l.447 4.454c.116 1.157.047 1.249-.509 1.409l-.332.094c-.096.075-.065.379.045.443.649-.09 1.203-.157 1.833-.222a43 43 0 0 1 1.852-.148c.08-.086.049-.388-.045-.438l-.346-.03c-.573-.044-.66-.123-.778-1.283l-.155-1.548c-.021-.248.001-.278.443-.323.311-.031.524.048.707.373.357.641.707 1.227 1.176 1.852.645.85 1.418 1.19 2.575 1.072.392-.035.79-.098.98-.21.058-.08.037-.27-.082-.32a1.56 1.56 0 0 1-.877-.269c-.653-.455-1.27-1.346-2.269-2.95-.075-.131-.082-.204.04-.283.546-.347 1.255-.899 1.14-2.02-.077-.805-.518-1.397-1.293-1.748-.38-.182-1-.27-1.737-.257m127.309.08c.093.273.22.801.358 1.358l.252 1.048c.079.333.015.368-.278.347l-1.098-.08c-.315-.022-.373-.064-.238-.399l.387-.921a16 16 0 0 1 .617-1.353m-105.825.109c.13.257.324.764.535 1.296l.394 1.001c.12.322.061.365-.231.382l-1.098.07c-.314.017-.379-.017-.288-.365l.257-.963c.154-.594.321-1.135.431-1.421m-27.294.35c-.16.044-.875.12-1.683.192l-2.674.242c-.604.055-1.222.1-1.82.13-.116.086-.101.375.015.445l.32.031c.578.064.664.13.766 1.28l.429 4.703c.104 1.155.036 1.239-.523 1.383l-.584.144c-.095.07-.07.372.042.44a87 87 0 0 1 2.165-.237l1.636-.146a83 83 0 0 1 2.917-.23c.146-.356.357-1.402.349-2.063-.064-.146-.386-.167-.474-.02-.565 1.489-.99 1.562-2.085 1.662-.922.086-1.172.006-1.355-.205-.171-.203-.257-.602-.311-1.183l-.134-1.5c-.036-.377-.024-.391.315-.42l.872-.083c.652-.06.813.025.997.625l.094.309c.096.105.41.062.46-.057-.06-.401-.113-.854-.16-1.33-.04-.479-.069-.936-.08-1.342-.075-.108-.387-.08-.467.028l-.036.32c-.07.621-.213.718-.869.778l-.87.08c-.34.03-.357.01-.388-.346l-.205-2.208c-.041-.466-.042-.49.374-.526l1.006-.092c.617-.056 1.01.06 1.27.278.18.159.393.52.57.95.142.106.426.056.465-.087-.142-.844-.31-1.741-.344-1.944zm5.46.088c.799.077 1.38.706 1.48 1.697.076.74-.123 1.164-.319 1.404-.212.26-.468.402-.92.448-.743.075-.782.043-.826-.398l-.247-2.456c-.059-.601-.039-.64.478-.693q.184-.018.354-.002zm159.256.092c-.025-.004-.545.577-1.162.662.006.37-.269.794-.624 1.565l-1.39 2.988c-.416.876-.694 1.463-.948 1.95-.257.477-.518.556-.824.569l-.342.01c-.098.093-.13.36 0 .445.581.048.874.033 1.3.066.534.059 1.041.1 1.478.16.129-.05.126-.342.061-.436l-.374-.094c-.348-.093-.442-.178-.436-.255.01-.099.024-.197.122-.443l.59-1.428c.1-.23.135-.24.435-.216l1.417.115c.442.039.54.071.586.278l.252 1.112c.114.48.176.79.17.877-.006.076-.064.16-.358.188l-.41.029c-.148.09-.145.355-.012.443.581.025 1.076.052 1.708.103a46 46 0 0 1 1.94.198c.12-.066.12-.37.049-.438l-.476-.12c-.46-.112-.548-.413-.752-1.19l-1.31-5.085a28 28 0 0 1-.424-1.777c-.035-.194-.105-.266-.266-.276zm-171.152.464c-.365.041-.742.078-1.171.104-.476.026-.958.043-1.553.059-.146.078-.132.342-.024.438l.37.064c.31.056.35.105.358.193.004.076-.025.22-.101.46a87 87 0 0 1-.832 2.7l-.391 1.213c-.126.393-.257.737-.346.962-.102-.209-.244-.49-.45-.945l-1.29-2.774c-.349-.733-.583-1.253-.589-1.352-.006-.113.078-.195.302-.26l.37-.098c.07-.119.07-.359-.035-.427-.771.064-1.311.113-1.89.146-.658.043-1.075.046-1.72.071-.107.076-.13.307-.022.438l.51.094c.41.077.476.097 1.031 1.278l2.366 5.007c.201.416.46 1.073.618 1.405q.118.091.346.08a.83.83 0 0 0 .434-.132c.245-.722.528-1.74 1.074-3.304l.782-2.243c.368-1.05.663-1.752.912-2.185.149-.277.318-.398.67-.485l.322-.08c.083-.084.056-.386-.051-.427m178.657.014c-1.835-.077-2.99.859-3.038 2.288-.055 1.255.913 2.056 1.805 2.552.743.412 1.679 1.057 1.635 2.083-.025.633-.483 1.263-1.42 1.221-1.076-.044-1.875-1.246-2.09-2.08-.098-.141-.39-.142-.484.018-.034.856.089 1.774.319 2.064.26.166.967.525 2.13.575 1.908.08 3.232-.878 3.294-2.439.062-1.389-.91-2.166-1.675-2.615l-.818-.479c-.615-.357-1.112-.907-1.089-1.489.027-.632.504-1.158 1.341-1.122.909.037 1.416.987 1.605 1.64.107.13.422.132.495-.018.035-.85-.064-1.535-.154-1.817a3 3 0 0 1-.426-.12 5 5 0 0 0-1.43-.262zm-8.51 1.749c.092.272.212.805.347 1.362l.243 1.05c.074.337.007.366-.283.345l-1.1-.09c-.312-.026-.374-.067-.232-.4l.392-.92c.237-.566.486-1.08.634-1.347m-107.068 11.985c-.146.072-.158.351-.064.435l.309.09c.556.164.624.248.518 1.419l-.28 3.145c-.123 1.374.071 2.33.676 2.932.629.613 1.473.842 2.432.928 1.016.091 1.964-.142 2.571-.683.761-.708.974-1.78 1.08-2.962l.126-1.41c.092-1.018.226-1.974.394-2.287.139-.254.384-.307.716-.356l.234-.029c.111-.09.106-.347.037-.428-.482-.026-.949-.056-1.414-.097a48 48 0 0 1-1.682-.186c-.082.072-.133.322-.04.433l.335.095c.334.095.605.19.695.469.108.339.071 1.3-.017 2.316l-.139 1.53c-.155 1.72-.773 3.088-2.385 2.945-1.912-.172-1.929-1.814-1.798-3.285l.26-2.908c.106-1.17.19-1.265.763-1.317l.311-.021c.106-.066.129-.344.038-.427-.61-.04-1.226-.08-1.843-.137a45 45 0 0 1-1.833-.205zm44.056.089a5 5 0 0 0-.688.021c-1.825.17-2.841 1.257-2.693 2.68.117 1.245 1.18 1.908 2.13 2.278.792.303 1.806.817 1.901 1.838.062.629-.31 1.313-1.239 1.402-1.071.101-2.024-.98-2.352-1.776-.113-.13-.397-.09-.476.082.083.857.329 1.747.599 2.003.276.127 1.025.39 2.184.278 1.9-.177 3.076-1.309 2.932-2.858-.131-1.382-1.193-2.02-2.015-2.359l-.872-.363c-.66-.269-1.228-.75-1.282-1.329-.058-.63.344-1.213 1.174-1.291.91-.086 1.535.782 1.812 1.407.125.113.438.07.485-.085-.078-.844-.268-1.512-.393-1.782a3 3 0 0 1-.443-.056 4.6 4.6 0 0 0-.764-.09zm-8.217.575c-.024 0-.461.64-1.063.808.06.365-.16.822-.412 1.631l-.983 3.136c-.294.926-.491 1.54-.685 2.058-.187.501-.433.616-.738.666l-.34.055c-.082.107-.078.37.064.44.582-.029.869-.082 1.296-.103.533-.012 1.036-.037 1.478-.033.126-.07.083-.36.005-.443l-.382-.045c-.353-.047-.46-.12-.464-.196-.006-.098 0-.197.066-.455l.393-1.489c.067-.242.103-.256.408-.273l1.411-.068c.44-.022.543-.002.618.195l.396 1.072c.173.459.275.755.278.842.003.077-.041.169-.33.235l-.406.08c-.129.104-.09.373.052.439.58-.05 1.073-.085 1.702-.118a42 42 0 0 1 1.946-.057c.11-.082.07-.384-.01-.443l-.483-.052c-.471-.055-.597-.336-.9-1.084l-1.963-4.859c-.36-.882-.532-1.34-.65-1.703-.06-.185-.138-.248-.304-.236zm-3.862.068a.34.34 0 0 0-.165.04c-.107.268-.298.283-1.131.3l-4.703.09c-.96.017-1-.033-1.07-.246a.28.28 0 0 0-.177-.047.26.26 0 0 0-.174.068c-.08.494-.133 1.276-.382 2.156.08.162.324.184.476.104.357-.93.616-1.441 1.539-1.459l.784-.016c.304-.006.303.056.311.363l.102 5.58c.023 1.176-.053 1.29-.62 1.364l-.566.073c-.1.076-.094.365.008.44.882-.038 1.538-.064 2.149-.077.566-.012 1.2-.01 2.024 0 .085-.076.082-.366-.007-.44l-.507-.057c-.571-.063-.65-.164-.672-1.34l-.106-5.58c-.003-.328.032-.365.333-.37l.763-.017c.95-.015 1.137.575 1.37 1.38.061.1.404.07.463-.047-.04-.72.034-1.745.149-2.177-.023-.039-.114-.089-.191-.085zm-22.528.078c-.13.025-.151.325-.066.429l.351.066c.442.08.612.239.705.46.07.177.076.38.047 1.076l-.118 3.212c-.043 1.026-.114 1.971-.264 2.307-.114.264-.37.344-.714.394l-.214.028c-.107.097-.091.364-.017.44.483-.008.95-.002 1.417.017.507.02 1.011.053 1.694.104.08-.074.115-.336.016-.443l-.35-.064c-.33-.064-.616-.164-.72-.434-.123-.349-.142-1.296-.1-2.32l.089-2.456c.015-.466.026-.682.096-.808.22.202.615.747 1.315 1.673l2.786 3.725c.57.755.96 1.416.973 1.416.304.014.664-.111.759-.259-.009-.42.02-1.214.051-2.036l.113-3.028c.041-1.024.126-1.969.274-2.304.127-.262.372-.36.702-.394l.231-.028c.103-.1.089-.365.014-.443a24 24 0 0 1-1.416-.007 51 51 0 0 1-1.694-.102c-.079.068-.114.328-.017.431l.337.066c.34.067.618.165.721.434.127.345.143 1.297.104 2.321l-.066 1.746c-.009.226-.02.44-.073.566-.282-.302-.63-.756-1.16-1.435l-1.02-1.292c-1.087-1.399-1.873-2.39-1.977-2.962a9 9 0 0 1-1.065.008 49 49 0 0 1-1.744-.104zm9.935.304c-.1.075-.104.365-.005.44l.356.069c.582.104.658.193.648 1.385l-.033 4.657c-.01 1.186-.088 1.276-.67 1.374l-.353.058c-.1.074-.1.365-.002.443.681-.02 1.316-.03 1.923-.025.59.003 1.21.022 1.897.051.101-.074.115-.364.014-.44l-.351-.07c-.58-.102-.656-.194-.65-1.384l.035-4.652c.008-1.19.086-1.278.667-1.376l.353-.061c.104-.073.106-.365.003-.443a49 49 0 0 1-3.832-.026zm15.748 1.888c.127.257.314.769.521 1.3l.377 1.004c.12.324.058.366-.233.382l-1.1.056c-.312.014-.38-.023-.281-.367l.269-.962c.16-.59.336-1.13.447-1.413m-2.092 43.67-.773.05c-.376.02-.574.247-.839.69l-7.927 12.902c-.086.355.014.722.344.836l6.165-.372c.558-.035.618.042.662.737l.044.747c.131 2.19-.018 2.415-1.322 2.595l-1.088.148c-.229.175-.163.867.113.933.902-.113 2.505-.235 4.265-.337a67 67 0 0 1 3.605-.141c.262-.098.248-.788 0-.936l-.57-.019c-1.18-.034-1.352-.27-1.487-2.455l-.04-.745c-.045-.695.004-.776.566-.815l1.762-.101c.386-.266.321-1.31-.092-1.497l-1.76.107c-.56.035-.621-.044-.662-.738l-.304-5.069c-.017-.265-.137-.45-.375-.433-.453.03-1.86.646-2.538.982-.415.188-.569.389-.527.997l.221 3.74c.042.69-.005.77-.563.806l-3.283.2c-.853.054-.84-.164-.622-.523l7.338-11.584c.365-.56.139-.729-.313-.705zm11.033.215a6.6 6.6 0 0 0-1.113.116c-2.55.475-4.697 2.369-5.28 5.221.134.41.659.477.937.208.57-1.6 1.44-2.768 2.939-3.05 1.758-.327 3.12.86 3.457 2.67.526 2.81-.692 5.318-2.13 7.652-1.253 2.03-2.492 3.704-3.316 4.81-.008.245.124.515.368.527.438-.136 1.56-.372 2.926-.63l4.176-.777a71 71 0 0 1 3.695-.608c.327-.714.593-2.637.525-4.307-.168-.324-.771-.211-.921.007-.502 1.534-.809 1.644-2.724 2.003l-3.177.594c-.368.07-.53-.068-.558-.224-.04-.211.126-.62 1.084-1.911l1.04-1.42c2.598-3.556 3.138-5.177 2.754-7.23-.401-2.159-2.185-3.687-4.683-3.65zm-39.904.262c-.188-.036-1.278.277-2.5.398-1.107.09-2.393.146-3.497.099-.24.122-.334.753-.125.928l1.18.387c1.128.379 1.157.793.825 2.526l-1.623 8.584c-.4 2.1-.608 2.335-1.913 2.194l-1.091-.125c-.268.113-.371.799-.123.931.958.122 2.539.396 4.267.728 1.632.305 3.202.631 4.138.865.277-.031.434-.709.227-.907l-1.063-.285c-1.266-.351-1.38-.64-.98-2.74l1.918-10.112c.246-1.316.503-2.517.669-3.11a.38.38 0 0 0-.309-.361m11.98 1.496c-3.31-.206-5.596 1.63-5.761 4.242-.12 1.896.97 3.278 2.568 4.293-2.176.932-3.678 2.206-3.803 4.209-.18 2.907 2.45 4.495 5.575 4.691 4.19.262 6.27-1.727 6.429-4.232.161-2.56-1.322-4.075-3.262-5.215 1.463-.714 3.022-1.607 3.14-3.499.16-2.537-1.869-4.301-4.886-4.489zm-.132 1.223c1.066.07 2.148 1.18 2.034 3.023-.08 1.28-.607 2.374-1.466 2.83-2.13-1.073-2.967-2.25-2.889-3.504.092-1.444 1.092-2.427 2.321-2.349zm-1.826 8.137c2.149 1.182 3.547 2.395 3.412 4.503-.1 1.6-1.198 2.442-2.37 2.368-1.737-.109-2.735-1.7-2.618-3.565.082-1.28.555-2.401 1.576-3.306"/><path fill="#fff" d="M142.16 204.064c-2.462 0-4.465 2.173-4.465 4.844 0 2.654 2.004 4.812 4.466 4.812 2.467 0 4.474-2.158 4.474-4.812 0-2.671-2.007-4.844-4.474-4.844m13.356 6.206c-2.458 0-4.46 2.176-4.46 4.848 0 2.652 2.002 4.811 4.46 4.811 2.467 0 4.478-2.159 4.478-4.811 0-2.671-2.012-4.848-4.478-4.848m13.359 6.33c-2.46 0-4.463 2.173-4.463 4.847 0 2.653 2.002 4.812 4.463 4.812 2.469 0 4.474-2.159 4.474-4.812 0-2.675-2.005-4.847-4.474-4.847m13.325 6.244c-2.458 0-4.46 2.174-4.46 4.845 0 2.656 2.001 4.814 4.46 4.814 2.47 0 4.477-2.158 4.477-4.814 0-2.672-2.009-4.845-4.477-4.845"/><path fill="#002664" d="M142.16 191.733a2.11 2.11 0 0 0-2.108 2.107v13.26c0 1.17.946 2.127 2.109 2.127 1.16 0 2.106-.957 2.106-2.128v-13.26a2.11 2.11 0 0 0-2.106-2.106m13.356 6.207a2.11 2.11 0 0 0-2.106 2.109v13.257c0 1.17.943 2.128 2.106 2.128s2.105-.956 2.105-2.128v-13.257a2.11 2.11 0 0 0-2.105-2.109m13.361 6.33a2.11 2.11 0 0 0-2.109 2.108v13.255c0 1.172.946 2.13 2.109 2.13 1.16 0 2.104-.958 2.104-2.13v-13.255a2.11 2.11 0 0 0-2.104-2.109m13.323 6.244a2.11 2.11 0 0 0-2.104 2.109v13.257c0 1.17.944 2.128 2.104 2.128 1.162 0 2.107-.957 2.107-2.128v-13.257a2.11 2.11 0 0 0-2.107-2.11"/><path fill="#fff" d="M142.16 192.904a.94.94 0 0 0-.94.94v13.26c0 .528.42.958.94.958.526 0 .938-.42.938-.959v-13.26a.94.94 0 0 0-.937-.94m13.356 6.209a.94.94 0 0 0-.94.94v13.257c0 .529.422.959.94.959.53 0 .938-.42.938-.96v-13.256a.94.94 0 0 0-.938-.94m13.361 6.324a.944.944 0 0 0-.943.943v13.254c0 .531.424.964.943.964.524 0 .938-.423.938-.964V206.38a.94.94 0 0 0-.938-.943m13.323 6.247a.94.94 0 0 0-.938.94v13.257c0 .53.421.962.938.962.53 0 .94-.423.94-.962v-13.257a.94.94 0 0 0-.94-.94"/></svg>